<svg xmlns="http://www.w3.org/2000/svg" width="256" height="256"><path fill="#1976D2" fill-opacity=".016" fill-rule="evenodd" d="M0 128.004v128.004l128.25-.254 128.25-.254.254-127.75L257.008 0H0zm.485.496c0 70.4.119 99.053.265 63.672s.146-92.98 0-128S.485 58.1.485 128.5"/><path fill="#1976D2" fill-opacity=".247" fill-rule="evenodd" d="M3 128v128l48.25-.079c26.538-.043 47.688-.306 47-.583-1.362-.55-1.758-5.338-.441-5.338.445 0 1.604-.582 2.576-1.292 1.655-1.21 1.443-2.125-3.309-14.319C94.284 227.224 92 220.606 92 219.681c0-1.392 1.054-1.681 6.128-1.681h6.128l-.6 3.75c-.648 4.056 2.644 16.948 3.639 14.25 2.195-5.952 2.758-9.464 2.158-13.466l-.68-4.534h6.113c5.713 0 6.114.151 6.114 2.3 0 1.265-.394 2.728-.875 3.25-.482.523-2.739 6.598-5.017 13.501-4.768 14.452-6.003 16.57-10.403 17.842-2.154.623 5.811.918 24.295.901 15.125-.014 26.713-.232 25.75-.483-2.456-.642-2.294-5.003.215-5.8 1.215-.385 2.199-1.867 2.576-3.878.701-3.739.022-19.561-1.047-24.383l-.721-3.25H184v2.441c0 1.343-.45 2.719-1 3.059-1.324.818-1.324 24.182 0 25 .55.34 1 1.941 1 3.559 0 2.928-.027 2.941-6 2.941s-6-.013-6-2.941c0-1.618.45-3.219 1-3.559.576-.356 1-5.677 1-12.559V224h-8l-.015 12.25c-.016 13.246-.862 16.37-5.005 18.466-2.024 1.024 6.212 1.257 44.77 1.269L253 256V0H3zM124.573 21.906l-2.928 3.594 3.376-3.218c1.857-1.77 3.175-3.387 2.928-3.594s-1.766 1.241-3.376 3.218m62.927.493c-2.75.676-9.861 3.407-15.803 6.067-11.95 5.352-12.11 5.526-15.597 17.034l-2.121 7-12.739 5.755c-7.007 3.166-13.233 5.753-13.836 5.75-2.947-.014-30.375-13.705-34.216-17.079-2.372-2.083-8.335-5.865-13.25-8.404-9.423-4.867-11.996-5.504-4.511-1.118 4.918 2.882 8.878 7.294 7.928 8.831-.827 1.337-7.868.305-14.986-2.197-9.63-3.384-7.039-1.573 3.918 2.739 5.682 2.236 13.23 4.611 16.772 5.277C95.164 53.202 123 64.72 123 66.098c0 .356-2.588 1.787-5.75 3.178-5.078 2.235-5.89 2.353-6.947 1.009-1.04-1.323-2.004-.983-7.377 2.606-3.4 2.27-8.711 4.852-11.804 5.737-5.567 1.594-36.537 15.221-40.872 17.984-3.52 2.244-2.485 8.388 1.414 8.388 1.811 0 37.35-16.353 42.218-19.426 4.545-2.869 9.549-4.943 15.771-6.536 3.273-.838 4.053-1.446 3.681-2.87-.374-1.429 1.007-2.49 6.582-5.06 7.5-3.457 8.41-3.453 15.386.067 2.946 1.487 3.667 2.347 3.2 3.817-.498 1.571.053 2.018 3.198 2.59 5.542 1.009 12.933 4.07 17.664 7.317 2.275 1.562 13.136 6.967 24.136 12.011 16.788 7.7 20.361 9.009 22.25 8.153 2.536-1.15 3.066-5.141.918-6.923-2.037-1.691-35.048-16.823-42.798-19.619-8.133-2.934-13.139-5.444-17.779-8.917-3.13-2.343-3.509-2.415-4.635-.874-1.144 1.564-1.505 1.552-5.341-.178-2.263-1.021-4.115-2.142-4.115-2.491s5.202-2.993 11.56-5.874l11.56-5.24 8.814 3.527c4.848 1.939 9.099 3.526 9.448 3.526 1.815 0 23.387-10.428 27.127-13.113 7-5.028 7.289-6.953 2.575-17.205-3.011-6.549-4.645-8.945-6.607-9.691-3.029-1.151-2.543-1.173-8.977.408m-54.421 2.184c.048 1.165.285 1.402.604.605.289-.722.253-1.585-.079-1.917s-.568.258-.525 1.312m45.701 5.25c-8.097 3.667-14.734 7.23-14.75 7.917-.017.688.257 1.25.608 1.25.661 0 29.528-13.025 30.295-13.669.239-.201.014-.769-.5-1.265-.56-.54-6.821 1.767-15.653 5.767m5.478 3.071c-6.733 3.078-12.246 6.159-12.25 6.846s.181 1.25.413 1.25c.623 0 24.982-11.07 25.502-11.589.244-.244.024-.817-.49-1.273-.518-.46-6.379 1.66-13.175 4.766m2.82 4.202c-6.884 3.27-10.085 5.287-9.43 5.942C178.793 44.193 200 34.678 200 33.019c0-1.718-2.101-1.054-12.922 4.087m.672 5.625C177.155 47.76 173.888 50 177.145 50c2.249 0 25.778-11.316 25.262-12.15-.884-1.431-2.485-.898-14.657 4.881m.25 6.002c-16.782 7.703-15.628 7.047-14.433 8.208 1.196 1.164 30.38-11.974 30.41-13.691.013-.687-.315-1.232-.727-1.211s-7.275 3.034-15.25 6.694m-72.992 49.065-12.492 5.702 13.301.279c7.316.154 18.911.154 25.767 0l12.466-.279-12.908-5.75c-7.099-3.162-13.072-5.728-13.274-5.702-.203.026-5.989 2.614-12.86 5.75m-62.828-.741c-1.641.658-2.227 1.589-2 3.177.444 3.115 3.072 3.314 6.365.481 4.295-3.695 1.522-6.019-4.365-3.658m144.218 1.109c-.974 1.576 4.561 5.942 7.102 5.602 3.204-.429 3.207-4.549.004-5.766-3.496-1.33-6.222-1.267-7.106.164m-38.361 30.947c-5.316 1.619-8.651 4.465-10.423 8.894-1.315 3.286-1.61 8.062-1.592 25.763.025 24.598.807 28.107 7.14 32.021 7.236 4.472 23.324 4.752 34.853.607l4.985-1.793V173h-13.773l-.694 4.626c-1.237 8.253-8.082 11.989-13.672 7.462-2.337-1.891-2.361-2.115-2.361-21.588s.024-19.697 2.361-21.588c4.988-4.039 11.68-1.655 13.4 4.773l1.154 4.315h13.66l-.287-9.221-.288-9.221-5-1.913c-5.88-2.249-24.011-3.192-29.463-1.532m59.083-.015c-5.286 1.606-7.855 3.723-10.071 8.301-1.875 3.874-2.049 6.1-2.049 26.259 0 21.001.107 22.233 2.288 26.435 3.49 6.722 9.169 9.18 21.212 9.18 12.147 0 17.841-2.475 21.25-9.235 2.131-4.226 2.25-5.631 2.25-26.593 0-21.136-.103-22.325-2.29-26.46-3.379-6.39-7.889-8.376-19.704-8.674-5.228-.132-11.027.222-12.886.787M4 133.641c0 3.074.606 5.371 1.75 6.636 1.551 1.715 1.75 4.352 1.75 23.225 0 18.872-.199 21.509-1.75 23.222-1.141 1.261-1.75 3.559-1.75 6.605V198h23v-4.592c0-3.078-.659-5.431-2-7.135-1.817-2.31-2-4.057-2-19.108 0-9.111.379-16.138.842-15.615.463.522 3.051 8.484 5.75 17.693l4.908 16.743 3.606.007 3.607.007 4.697-15.75c2.584-8.662 5.093-16.65 5.576-17.75.552-1.256.904 4.349.946 15.059.054 13.53-.236 17.46-1.4 19-.808 1.067-1.483 4.078-1.5 6.691L50 198h23v-4.5c0-3.167-.593-5.093-2-6.5-1.879-1.879-2-3.333-2-23.992 0-20.908.098-22.053 2-23.24 1.545-.965 2-2.332 2-6.009V129H47.077l-1.018 3.75c-5.013 18.463-7.913 27.51-8.413 26.25-.327-.825-2.337-7.8-4.465-15.5l-3.87-14-12.656-.28L4 128.94zm93.143-3.148c-5.355 1.671-8.833 4.763-11.253 10.007-3.636 7.878-1.928 16.756 4.224 21.955 2.217 1.874 2.931 3.016 2.069 3.309-.725.246-2.513 1.476-3.975 2.734-2.357 2.027-2.702 3.144-3.041 9.861-.245 4.85-.883 7.99-1.775 8.73-.841.699-1.392 3.085-1.392 6.033V198h18.753l.427-11.954c.515-14.465 1.4-16.046 8.975-16.046H115v7.878c0 5.782-.399 8.208-1.5 9.122-.958.795-1.5 3.007-1.5 6.122V198h23v-4.592c0-3.078-.659-5.431-2-7.135-1.855-2.358-2-4.057-2-23.408 0-19.532.128-20.993 2-22.865 1.407-1.407 2-3.333 2-6.5V129l-16.75.067c-11.138.044-18.21.522-21.107 1.426m126.312 11.962c-2.433 2.432-2.455 2.623-2.455 21.325 0 18.433.054 18.922 2.314 21.046 3.275 3.076 7.992 2.872 10.613-.461 1.927-2.449 2.073-3.934 2.073-21.045 0-18.214-.026-18.437-2.455-20.865-1.35-1.35-3.62-2.455-5.045-2.455s-3.695 1.105-5.045 2.455M102 143c-1.447 1.447-2 3.333-2 6.826 0 6.66 2.69 9.174 9.814 9.174H115v-18h-5.5c-4.167 0-5.985.485-7.5 2M9.5 236.5V255h5.75c5.722 0 5.75-.015 5.75-3 0-1.65-.45-3-1-3s-1-2.25-1-5v-5h9v4.441c0 2.443-.45 4.719-1 5.059s-1 1.941-1 3.559c0 2.928.027 2.941 6 2.941 5.905 0 6-.044 6-2.8 0-1.54-.478-3.278-1.063-3.863-1.151-1.151-.736-21.358.557-27.087l.733-3.25h-6.114c-5.814 0-6.113.119-6.113 2.441 0 1.343.45 2.719 1 3.059s1 2.616 1 5.059V233h-9v-4.441c0-2.443.45-4.719 1-5.059s1-1.716 1-3.059c0-2.305-.32-2.441-5.75-2.441l-5.75.001zm38.816-14.25c.61 4.479-3.481 25.315-5.335 27.169-.54.54-.981 2.016-.981 3.281 0 2.144.406 2.3 6 2.3 5.973 0 6-.013 6-2.941 0-1.618-.408-3.193-.906-3.501s-.671-1.46-.383-2.559c.423-1.621 1.364-1.999 4.978-1.999h4.455l-.687 5.5-.687 5.5h6.115c6.031 0 6.115-.039 6.115-2.8 0-1.54-.425-3.228-.945-3.75-1.621-1.631-5.328-19.689-5.172-25.2l.148-5.25H47.737zm77.19-1c1.293 5.729 1.708 25.936.557 27.087-.585.585-1.063 2.323-1.063 3.863 0 2.779.048 2.8 6.5 2.8 6.177 0 6.5-.118 6.5-2.378 0-1.307-.675-2.937-1.5-3.622-2.057-1.707-2.213-24.789-.172-25.572 2.364-.908 6.672 1.383 6.672 3.547 0 1.648.652 2.025 3.5 2.025h3.5v-11h-25.227zm68.417-.327c-3.912 3.912-4.047 9.587-.334 14 2.043 2.429 2.249 3.077.975 3.077-2.048 0-3.129 2.877-4.038 10.75l-.722 6.25H200v-5.918c0-8.02.539-9.082 4.607-9.082 3.283 0 3.393.127 3.393 3.941 0 2.168-.45 4.219-1 4.559s-1 1.941-1 3.559c0 2.928.027 2.941 6 2.941s6-.013 6-2.941c0-1.618-.45-3.219-1-3.559-.576-.356-1-5.657-1-12.5s.424-12.144 1-12.5c.55-.34 1-1.716 1-3.059 0-2.434-.03-2.441-10.577-2.441-10.357 0-10.638.061-13.5 2.923m29.077-1.01c0 1.052 1.579 4.31 3.509 7.241s3.77 6.151 4.089 7.156c.36 1.132-.977 4.519-3.509 8.891-2.249 3.885-4.089 8.129-4.089 9.431 0 2.175.408 2.368 5 2.368 4.582 0 5-.197 5-2.351 0-3.176 1.976-8.649 3.123-8.649 1.271 0 2.877 4.502 2.877 8.065 0 2.891.083 2.935 5.5 2.935 5.108 0 5.5-.168 5.5-2.352 0-1.293-2.025-5.435-4.5-9.203s-4.5-7.202-4.5-7.63c0-.429 1.8-3.721 4-7.315s4-7.427 4-8.518c0-1.712-.681-1.982-5-1.982-4.779 0-5.002.121-5.035 2.75-.02 1.512-.665 3.875-1.434 5.25l-1.398 2.5-1.566-3.718c-.862-2.045-1.567-4.407-1.567-5.25 0-1.172-1.176-1.532-5-1.532-4.257 0-5 .284-5 1.913m-21 4.363c-2.82 1.437-3.661 4.62-2.028 7.672.788 1.472 2.092 2.052 4.615 2.052h3.518l-.303-5.241c-.333-5.769-1.502-6.673-5.802-4.483m-145.453.974c-.215.688-.682 3.05-1.037 5.25-.356 2.2-.89 5.012-1.187 6.25-.485 2.023-.169 2.25 3.136 2.25 3.024 0 3.587-.31 3.177-1.75-.274-.963-1.011-4.338-1.638-7.5-1.143-5.765-1.723-6.83-2.451-4.5"/><path fill="#1976D2" fill-opacity=".645" fill-rule="evenodd" d="M3 64.5V129h26.658l3.798 14.25c2.089 7.838 4.091 14.578 4.45 14.979.358.401 2.442-5.899 4.631-14l3.979-14.729 13.242-.279L73 128.942v4.979c0 3.703-.449 5.23-1.75 5.958-1.565.874-1.782 3.221-2.058 22.226-.291 20.138-.2 21.393 1.75 24.031 1.366 1.848 2.058 4.309 2.058 7.324V198H49v-4.592c0-3.078.659-5.431 2-7.135 1.822-2.316 1.992-3.98 1.912-18.658l-.088-16.115-3.336 10.5c-1.836 5.775-4.315 13.763-5.51 17.75-2.149 7.171-2.21 7.25-5.608 7.25-4.053 0-3.57.976-9.527-19.239-2.388-8.107-4.568-14.745-4.843-14.752-.275-.006-.367 7.376-.204 16.405.232 12.872.61 16.678 1.75 17.624.908.754 1.454 3.037 1.454 6.084V198H3v58h94.598l-.408-3.5c-.353-3.023-.121-3.5 1.701-3.5 1.367 0 2.109-.635 2.109-1.807 0-2.15-7.715-22.277-9.063-23.643-.515-.522-.937-2.21-.937-3.75 0-2.781.045-2.8 6.531-2.8 7.184 0 8.621 1.176 6.671 5.456-.808 1.773-.632 3.725.739 8.186 1.069 3.477 2.034 5.248 2.375 4.358 1.772-4.624 2.535-9.809 2.009-13.649l-.597-4.351h6.136c5.433 0 6.136.225 6.136 1.965 0 3.221-9.898 31.264-11.771 33.347-.951 1.058-2.629 2.292-3.729 2.743-1.12.458 9.02.846 23.049.882l25.049.063-.392-3.359c-.32-2.746-.01-3.459 1.701-3.906 1.978-.518 2.093-1.211 2.093-12.582 0-6.945-.423-12.296-1-12.653-.55-.34-1-1.941-1-3.559V217h14.531c12.519 0 14.619.226 15.158 1.632.345.898.106 2.467-.531 3.487-1.453 2.326-1.592 26.495-.158 27.381.55.34 1 1.716 1 3.059 0 2.356-.245 2.441-7 2.441s-7-.085-7-2.441c0-1.343.45-2.719 1-3.059.58-.358 1-5.844 1-13.059V224h-6.849l-.325 14.091c-.31 13.41-.44 14.183-2.687 16-2.331 1.885-1.788 1.909 43.75 1.909H253l-.115-37.25c-.063-20.488-.43-35.675-.815-33.75-1.983 9.917-9.969 15-23.57 15-13.384 0-21.264-4.991-23.365-14.799-1.402-6.548-1.453-37.108-.072-43.101 2.389-10.365 9.109-14.512 23.437-14.466 14.089.045 20.56 3.721 23.087 13.115 1.071 3.981 1.289-7.046 1.346-67.999L253 0H3zM127.389 2.572c.913 2.38-.938 5.021-5.919 8.449-5.742 3.95-7.743 7.05-7.743 11.996 0 3.588-.205 3.901-2.227 3.394-1.73-.435-2.367-.04-2.85 1.765-1.746 6.52.649 12.5 6.272 15.66 2.118 1.19 4.06 2.164 4.317 2.164s.251-2.25-.013-5c-.399-4.148-.203-5 1.147-5 1.235 0 1.627-.976 1.627-4.05 0-3.934 2.294-9.95 3.794-9.95.409 0 1.496-1.238 2.417-2.75l1.673-2.75 1.661 3.964c1.026 2.449 1.467 5.41 1.154 7.745-.487 3.628-.406 3.755 2.013 3.148l2.52-.632-.385 7.637c-.241 4.776-.004 7.637.634 7.634 2.296-.008 7.53-4.117 9.092-7.138 1.872-3.619 1.567-12.344-.594-17.035-1.052-2.283-1.583-2.544-3.606-1.775-2.178.828-2.373.65-2.373-2.172 0-4.501-2.709-9.471-7.31-13.409-4.356-3.729-6.267-4.412-5.301-1.895m59.437 19.497c-5.145 1.216-23.958 9.731-26.104 11.816-.978.95-3.003 5.458-4.5 10.019l-2.722 8.291-13 5.936-13 5.936-14.752-6.683c-8.114-3.676-15.295-7.339-15.96-8.139-2.146-2.586-12.057-8.861-21.288-13.479-11.542-5.773-16.347-7.119-6.474-1.813 8.389 4.509 14.356 9.436 13.697 11.312C82.1 47.04 75.707 46.301 68 43.563c-10.663-3.789-10.85-3.762-2.5.366C74.975 48.614 87.738 53 91.894 53 94.806 53 122 64.756 122 66.015c0 .354-2.183 1.666-4.851 2.915-4.08 1.911-5.172 2.073-6.864 1.016-1.728-1.079-2.49-.892-5.406 1.332-3.988 3.043-13.664 7.698-16.028 7.712-2.786.017-40.056 17.624-41.044 19.391-1.392 2.486 0 5.533 2.854 6.249 1.893.475 6.842-1.328 19.684-7.169 9.435-4.292 20.23-9.6 23.987-11.795 3.758-2.196 9.608-4.722 13-5.615 5.113-1.346 6.122-1.96 5.902-3.588-.212-1.563 1.237-2.638 7.109-5.271l7.375-3.308 5.51 2.702c4.2 2.06 5.398 3.127 5.041 4.493-.369 1.412.451 2.027 3.881 2.912 8.373 2.159 10.751 3.145 16.528 6.855 9.742 6.256 43.999 21.452 46.785 20.753 2.808-.705 4.07-3.734 2.656-6.376-.967-1.807-34.395-17.705-44.638-21.229-5.567-1.916-13.378-5.798-17.981-8.938-2.657-1.813-3.13-1.872-4.138-.514-1.017 1.37-1.52 1.35-4.75-.19-1.986-.947-3.612-2.004-3.612-2.348s4.964-2.894 11.031-5.665l11.032-5.039 8.218 3.333c4.521 1.833 9.145 3.341 10.276 3.35s7.936-2.887 15.122-6.436C201.765 49.083 207 44.913 207 40.955c0-2.367-7.619-18.094-9.276-19.147-1.538-.977-6.123-.867-10.898.261M178 30.576c-11.963 5.67-14.437 7.165-12.455 7.522C166.682 38.304 194 25.513 194 24.775c0-1.493-2.606-.548-16 5.801m6.056 2.802c-6.295 2.909-11.617 5.805-11.827 6.436-.442 1.324 1.51.572 16.021-6.169 5.363-2.491 9.75-4.78 9.75-5.087 0-1.266-3.077-.202-13.944 4.82m4.194 3.674C182.613 39.7 178 42.332 178 42.901c0 .568 4.236-.933 9.413-3.335 11.904-5.525 13.041-6.172 11.965-6.809-.483-.286-5.491 1.647-11.128 4.295m8.25 2.022c-2.2 1.073-7.788 3.672-12.418 5.775s-7.977 4.098-7.438 4.431C177.81 50 202 39.105 202 37.86c0-1.215-.947-1.006-5.5 1.214m-7.5 9.569c-7.425 3.49-13.95 6.511-14.5 6.714s-.667.726-.261 1.162 6.932-2.04 14.5-5.502c14.354-6.567 15.983-7.488 14.598-8.255-.46-.255-6.912 2.391-14.337 5.881m-74.941 49.181-12.441 5.676 13.191.279c7.255.153 19.15.153 26.434 0l13.243-.279-12.729-5.75c-7.001-3.162-13.298-5.717-13.993-5.676s-6.862 2.628-13.705 5.75m-62.809-.162c-1.766.713-1.555 4.007.302 4.72 1.76.675 5.999-1.771 6.833-3.942.413-1.078-.257-1.42-2.666-1.361-1.771.043-3.781.306-4.469.583m145.703.367c-.677.418.105 1.683 2.054 3.323 3.64 3.063 4.299 3.189 5.993 1.148.945-1.139.967-1.835.09-2.891-1.316-1.586-6.499-2.592-8.137-1.58m-35.224 29.957c-8.751 1.567-14.04 6.124-15.772 13.591-1.27 5.477-1.184 37.266.117 43.333 1.306 6.09 3.846 9.499 9.062 12.159 7.51 3.832 23.421 3.493 33.958-.723l3.906-1.563V173h-15v3.453c0 7.155-4.514 11.46-10.454 9.969-4.836-1.214-5.756-5.399-5.378-24.483.387-19.484.965-20.939 8.332-20.939 5.179 0 7.5 2.268 7.5 7.329V152h15v-19.92l-6.367-1.966c-7.687-2.374-18.412-3.291-24.904-2.128M98 129.7c-5.736 2.075-8.601 4.178-11.135 8.174-5.125 8.082-3.484 20.413 3.366 25.291l2.985 2.125-2.937 1.235c-3.6 1.514-5.023 4.96-5.541 13.418-.227 3.713-.89 6.608-1.566 6.833-.704.235-1.172 2.554-1.172 5.807V198h9.383c11.095 0 10.582.679 10.603-14.059.017-11.712.765-13.019 7.846-13.699l5.168-.496v6.992c0 5.478-.433 7.543-2 9.535-1.341 1.704-2 4.057-2 7.135V198h24v-4.878c0-3.115-.542-5.327-1.5-6.122-1.251-1.038-1.5-4.938-1.5-23.5s.249-22.462 1.5-23.5c.958-.795 1.5-3.007 1.5-6.122V129l-17.75.079c-9.763.043-18.425.323-19.25.621M3 163.5c0 13.475.193 24.5.429 24.5.235 0 1.135-.707 2-1.571C6.761 185.096 7 181.548 7 163.129 7 142.003 6.602 139 3.8 139c-.44 0-.8 11.025-.8 24.5m99.455-20.045c-3.411 3.411-3.411 9.679 0 13.09 1.957 1.958 3.476 2.455 7.5 2.455H115v-18h-5.045c-4.024 0-5.543.497-7.5 2.455m120.986-1.036c-1.807 1.322-1.941 2.773-1.941 21.089 0 19.464.025 19.689 2.361 21.58 3.002 2.432 6.274 2.432 9.278.002 2.291-1.853 2.37-2.419 2.679-19.161.338-18.369.08-20.888-2.391-23.359-1.956-1.956-7.405-2.038-9.986-.151M8 219.941c0 1.618.45 3.219 1 3.559.58.358 1 5.844 1 13.059C10 244.186 9.613 249 9 249c-.55 0-1 1.35-1 3v3h13v-2.941c0-1.618-.45-3.219-1-3.559s-1-2.616-1-5.059V239h9.201l-.554 4.25a226 226 0 0 1-1.21 8l-.656 3.75h6.61c6.34 0 6.609-.099 6.609-2.441 0-1.343-.45-2.719-1-3.059-1.389-.858-1.311-24.789.085-26.185.596-.596.934-2.149.75-3.45-.307-2.166-.871-2.39-6.7-2.666l-6.366-.3.654 3.8c.36 2.091.909 5.489 1.22 7.551l.567 3.75H19v-3.941c0-2.168.45-4.219 1-4.559s1-1.941 1-3.559V217H8zm39.498-1.938c-.341.552-.327 2.954.031 5.339.678 4.524-2.741 23.255-4.584 25.108-.52.523-.945 2.21-.945 3.75 0 2.779.048 2.8 6.5 2.8 5.848 0 6.5-.202 6.5-2.014 0-1.107-.521-2.847-1.158-3.867-1.997-3.199-.35-5.281 3.9-4.93 3.02.25 3.821.753 4.078 2.561.175 1.238-.162 2.25-.75 2.25-.589 0-1.07 1.35-1.07 3v3h13.219l-.533-3.25c-.293-1.787-1.684-7.75-3.092-13.25-1.962-7.668-2.416-11.341-1.947-15.75l.611-5.75h-10.07c-5.654 0-10.342.44-10.69 1.003m76.824.599c-.351.915-.117 2.497.52 3.517 1.453 2.326 1.592 26.495.158 27.381-.55.34-1 1.716-1 3.059 0 2.356.245 2.441 7 2.441s7-.085 7-2.441c0-1.343-.45-2.719-1-3.059-.58-.358-1-5.844-1-13.059 0-12.315.023-12.441 2.3-12.441 2.781 0 4.7 1.74 4.7 4.26 0 1.539.649 1.807 3.75 1.55l3.75-.31v-12l-12.77-.28c-11.145-.244-12.851-.069-13.408 1.382m74.005-.906c-2.968.578-6.996 4.793-7.6 7.953-.662 3.463.962 9.077 2.947 10.189 1.413.79 1.352 1.136-.539 3.027-1.468 1.468-2.135 3.384-2.135 6.135 0 2.2-.45 4-1 4s-1 1.35-1 3c0 2.97.056 3 5.5 3h5.5v-5.566c0-6.8 1.266-9.434 4.535-9.434 2.241 0 2.465.394 2.465 4.333 0 2.384-.303 4.637-.674 5.008-.371.37-.723 1.795-.783 3.166-.106 2.423.081 2.493 6.674 2.493 6.525 0 6.783-.093 6.783-2.441 0-1.343-.45-2.719-1-3.059-1.434-.886-1.295-25.055.158-27.381.637-1.02.876-2.589.531-3.487-.519-1.353-2.126-1.609-9.408-1.496-4.829.075-9.759.327-10.954.56M223 219.482c0 1.366 1.841 5.49 4.091 9.166l4.091 6.684-2.235 4.084c-1.23 2.246-3.296 5.516-4.591 7.267s-2.356 4.339-2.356 5.75c0 2.471.225 2.567 6 2.567h6v-3.809c0-2.095.607-4.639 1.349-5.653 1.257-1.72 1.427-1.621 2.5 1.458.633 1.816 1.151 4.36 1.151 5.653 0 2.183.393 2.351 5.5 2.351 5.142 0 5.5-.156 5.5-2.405 0-1.323-2.015-5.674-4.478-9.668l-4.478-7.263 2.138-3.582c1.175-1.97 3.22-5.054 4.544-6.853s2.265-4.274 2.091-5.5c-.275-1.935-1.009-2.269-5.567-2.531-4.6-.265-5.25-.067-5.25 1.601 0 1.046-.518 3.389-1.151 5.205-1.073 3.079-1.243 3.178-2.5 1.458-.742-1.014-1.349-3.333-1.349-5.153V217h-5.5c-5.19 0-5.5.14-5.5 2.482M56.731 226c-.341 1.375-.927 4.863-1.304 7.75-.68 5.215-.667 5.25 2.038 5.25 2.696 0 2.716-.049 2.027-5.057-.382-2.781-1.021-6.268-1.419-7.75l-.724-2.693zm143.106.459c-1.504 3.3 1.132 7.541 4.686 7.541 2.306 0 2.477-.346 2.477-5 0-4.897-.062-5-3.021-5-2.239 0-3.312.637-4.142 2.459"/><path fill="#1976D2" fill-opacity=".97" fill-rule="evenodd" d="M2.998 64.242 2.996 128.5l12.643-.309c6.953-.17 13.03.078 13.505.553.474.474 2.007 4.888 3.408 9.809S35.8 149.975 36.659 153l1.56 5.5 3.753-13.67c2.064-7.518 4.025-14.381 4.359-15.25.51-1.328 2.682-1.58 13.638-1.58H73v5.893c0 4.316-.401 6.047-1.5 6.469-2.248.862-2.248 45.414 0 46.276 1.099.422 1.5 2.153 1.5 6.469V199H49v-5.64c0-3.749.486-6.012 1.45-6.75 1.133-.867 1.515-4.534 1.75-16.779.165-8.619.184-15.553.042-15.409-.142.143-2.427 7.42-5.078 16.169l-4.82 15.909-4.059.302-4.059.302-2.189-7.302a1348 1348 0 0 0-5.04-16.302l-2.85-9-.073 15.179c-.06 12.23.217 15.469 1.426 16.678.974.975 1.5 3.453 1.5 7.072V199H3v57h2.5c2.162 0 2.5-.447 2.5-3.3 0-1.815.478-3.778 1.063-4.363 1.134-1.134.725-20.736-.577-27.635l-.716-3.799 6.865.299c6.661.289 6.874.38 7.181 3.048.174 1.513-.163 2.75-.75 2.75-.597 0-1.066 1.98-1.066 4.5 0 4.476.019 4.5 3.5 4.5 3.408 0 3.5-.104 3.5-3.941 0-2.168-.45-4.219-1-4.559s-1-1.941-1-3.559V217h14v2.941c0 1.618-.45 3.219-1 3.559-1.324.818-1.324 24.182 0 25 .55.34 1 2.166 1 4.059 0 4.844 2.628 4.598 3.313-.309.288-2.062 1.671-8.475 3.073-14.25 1.877-7.729 2.391-11.886 1.945-15.75l-.606-5.25H68.26l-.538 4.75c-.603 5.322 3.528 26.169 5.418 27.336.616.381.914 2.092.663 3.803L73.346 256H97v-3.5c0-2.476.448-3.5 1.531-3.5 2.951 0 2.502-2.736-2.494-15.214C89.245 216.824 89.223 217 98.129 217h7.129l-.615 4.75c-.371 2.876-.085 6.519.728 9.235l1.341 4.485 1.605-5.474c1.026-3.5 1.258-5.821.644-6.435-.529-.529-.961-2.221-.961-3.761V217h14v2.941c0 1.618-.414 3.197-.921 3.51-.506.313-2.593 5.627-4.638 11.809-4.322 13.066-6.734 18.229-9.184 19.656-1.291.752.697 1.031 7.493 1.054l9.25.03v-3.441c0-1.893.45-3.719 1-4.059.576-.356 1-5.657 1-12.5s-.424-12.144-1-12.5c-.55-.34-1-1.941-1-3.559V217h27v13h-4.5c-4.08 0-4.5-.224-4.5-2.393 0-2.315-1.642-3.607-4.582-3.607-1.145 0-1.418 2.3-1.418 11.941 0 6.882.424 12.203 1 12.559.55.34 1 2.166 1 4.059V256h15v-3.5c0-2.325.468-3.5 1.393-3.5.766 0 1.666-.712 2-1.582 1.021-2.661.683-23.253-.393-23.918-.55-.34-1-1.941-1-3.559V217h30v2.941c0 1.618-.45 3.219-1 3.559-1.405.868-1.316 24.187.096 25.059.602.373.918 2.199.7 4.059-.347 2.977-.119 3.382 1.905 3.382 1.953 0 2.299-.517 2.299-3.441 0-1.893.45-3.719 1-4.059s1-2.359 1-4.488c0-2.185.684-4.553 1.572-5.441 1.43-1.43 1.384-1.811-.5-4.207-3.757-4.776-2.262-12.058 3.153-15.36 2.709-1.652 5.045-1.997 13.525-2L219 217v2.941c0 1.618-.45 3.219-1 3.559-1.405.868-1.316 24.187.096 25.059.602.373.918 2.199.7 4.059-.319 2.736-.051 3.382 1.405 3.382 1.345 0 1.799-.782 1.799-3.096 0-1.702.819-4.29 1.82-5.75s3.008-4.728 4.46-7.263l2.639-4.608-4.46-6.79c-2.452-3.734-4.459-7.848-4.459-9.141 0-2.208.368-2.352 6-2.352 5.774 0 6 .097 6 2.566 0 1.411.498 3.497 1.107 4.635 1.432 2.675 2.856.72 2.878-3.951L238 217h6c5.707 0 6 .12 6 2.46 0 1.353-1.796 5.29-3.99 8.75s-3.995 6.761-4 7.336c-.006.575 2.049 4.385 4.565 8.467 3.015 4.89 4.426 8.199 4.139 9.704-.282 1.473.046 2.283.925 2.283 1.124 0 1.353-6.236 1.317-35.75-.039-32.006-.191-35.331-1.452-31.75-2.843 8.072-9.902 11.506-23.62 11.49-6.793-.008-9.386-.476-13.665-2.468-4.548-2.117-5.624-3.193-7.741-7.741-2.362-5.073-2.459-6.098-2.468-26.063-.011-22.596.537-25.546 5.753-30.992 7.349-7.672 30.258-7.551 38.011.202 1.585 1.585 3.364 4.387 3.952 6.227.783 2.448 1.097-15.759 1.172-67.905L253 0l-62.75.052c-59.097.05-62.604.151-60.25 1.733 4.671 3.138 8.797 8.376 9.842 12.491.573 2.257.82 4.461.55 4.899s.811.534 2.402.216c2.746-.549 2.964-.331 4.278 4.265 3.032 10.609.777 17.986-6.593 21.567-4.856 2.359-6.224 2.037-4.56-1.072 1.181-2.206 1.398-7.368.457-10.877-.49-1.826-.936-2.045-2.486-1.215-1.735.929-1.89.605-1.89-3.959 0-2.733-.443-6.134-.983-7.556l-.984-2.587-3.766 4.172c-3.403 3.768-3.762 4.694-3.713 9.586.049 4.868-.141 5.365-1.873 4.912-1.709-.447-1.868-.086-1.403 3.184.289 2.029.854 4.508 1.257 5.508.696 1.73.542 1.742-3.151.236-2.136-.87-5.143-2.958-6.682-4.638-2.483-2.712-2.764-3.694-2.5-8.736.263-5.023.559-5.718 2.548-6.001 1.794-.254 2.251-.964 2.254-3.5.005-4.056 3.108-9.167 6.702-11.036 4.357-2.267 7.501-6.148 7.126-8.796L126.5.5 64.75.242 3-.015zM182 23.361c-3.575 1.3-10.1 4.113-14.5 6.252l-8 3.887-3 9.16-3 9.16-13.07 5.935-13.069 5.936-14.757-6.809c-8.117-3.745-16.275-8.142-18.131-9.772-1.855-1.629-6.433-4.775-10.173-6.99-7.677-4.549-25.213-12.541-25.934-11.82-.26.261 2.814 2.101 6.83 4.09 7.726 3.826 16.878 10.266 17.562 12.36.958 2.931-10.205.678-22.694-4.581-4.089-1.722-7.623-2.943-7.852-2.714C50.797 38.87 80.303 51.182 89.5 53.014c7.526 1.5 9.565 2.247 22.45 8.226l10.45 4.85-5.422 2.512c-4.778 2.214-5.554 2.33-6.54.983-.965-1.32-2.026-.932-7.772 2.842-3.66 2.404-8.986 4.93-11.835 5.614-4.892 1.173-36.738 15.368-41.581 18.534-3.041 1.988-2.935 5.93.215 7.994 2.382 1.561 3.004 1.371 18.25-5.581C76.397 95.03 88 89.408 93.5 86.495s11.575-5.6 13.5-5.97c6.608-1.273 7.211-1.609 6.661-3.712-.436-1.67.644-2.525 6.639-5.251l7.161-3.256 5.019 2.349c3.764 1.762 4.962 2.841 4.788 4.313-.181 1.531.699 2.217 4 3.117 9.164 2.501 10.657 3.102 16.344 6.579 8.769 5.362 43.501 21.31 46.438 21.324 4.769.022 6.753-5.079 3.2-8.23-2.275-2.018-35.367-17.099-45.912-20.924-4.49-1.628-10.338-4.506-12.997-6.397-5.088-3.617-6.928-4.177-7.554-2.299-.276.83-1.384.776-4.083-.2-2.037-.737-3.694-1.587-3.681-1.889s4.963-2.75 11-5.44L155 55.717l7.95 3.142c4.372 1.727 9.169 3.141 10.659 3.141 3.781 0 26.222-11.143 30.026-14.909 4.765-4.717 4.724-6.171-.465-16.392L198.5 21.5l-5-.252c-3.296-.166-7.216.554-11.5 2.113m5 3.467c-3.025 1.47-9.276 4.372-13.891 6.448s-8.161 4.005-7.88 4.286c.559.559 26.679-11.139 28.221-12.638 1.634-1.589-.659-.912-6.45 1.904m-2.889 6.889c-6.813 3.13-11.944 5.839-11.4 6.02C173.816 40.105 197 29.436 197 28.559c0-.799.62-1.048-12.889 5.158M190 36.624c-4.125 1.953-8.575 3.974-9.889 4.492-1.313.517-2.141 1.187-1.839 1.49.545.544 18.346-7.208 20.178-8.787 1.96-1.689-1.117-.668-8.45 2.805m-1.75 6.594c-6.187 2.81-11.25 5.465-11.25 5.9s3.938-1.038 8.75-3.272c4.813-2.235 10.55-4.883 12.75-5.884s3.325-1.828 2.5-1.837-6.562 2.283-12.75 5.093m7.75 2.61c-3.025 1.47-9.276 4.372-13.891 6.448s-8.174 3.992-7.908 4.258c.542.542 26.767-11.162 28.249-12.607 1.63-1.591-.654-.917-6.45 1.901m-81.75 51.461c-7.287 3.338-13.25 6.326-13.25 6.64s12.15.571 27 .571 27-.265 27-.589c0-.487-24.873-12.104-26.874-12.551-.344-.077-6.589 2.591-13.876 5.929m-62.712 1.059C49.441 99.882 50.233 102 52.904 102 54.598 102 58 99.11 58 97.671c0-1.191-4.561-.713-6.462.677M197 98.943c0 1.361 4.135 4.057 6.223 4.057 2.235 0 2.393-3.55.195-4.393-2.424-.93-6.418-.721-6.418.336m-39.184 29.638c-5.839 1.796-10.433 6.284-11.86 11.584-.685 2.541-.974 12.153-.775 25.697.305 20.692.422 21.803 2.67 25.419 1.3 2.091 4.205 4.744 6.5 5.935 8.189 4.252 29.748 3.226 37.385-1.779 2.113-1.384 2.264-2.18 2.264-11.96V173h-15.728l-.641 4.677c-.834 6.084-2.913 8.323-7.729 8.323-6.421 0-6.902-1.583-6.902-22.723 0-16.944.146-18.423 2-20.277 2.294-2.294 7.706-2.667 10.375-.715.972.71 2.011 3.17 2.323 5.5l.565 4.215H194v-9.378c0-6.679-.391-9.701-1.358-10.504-2.455-2.038-16.832-5.119-23.552-5.048-3.624.038-8.698.718-11.274 1.511m-57.49.451c-5.65 1.134-9.582 3.295-12.668 6.963-6.314 7.503-5.894 18.969.945 25.808 1.868 1.868 3.397 3.525 3.397 3.68s-.854.507-1.898.78c-3.187.833-5.17 5.156-5.797 12.635-.342 4.085-1.17 7.575-1.95 8.222-.833.691-1.355 3.198-1.355 6.502V199h9.893c8.099 0 10.003-.287 10.5-1.582.334-.87.614-5.932.622-11.25.019-12.911.898-14.574 7.909-14.975l5.376-.308-.612 7.293c-.406 4.845-1.127 7.67-2.15 8.418-1.071.783-1.538 2.846-1.538 6.795v5.671l12.25-.281 12.25-.281.31-4.87c.247-3.884-.108-5.259-1.75-6.789-1.956-1.822-2.06-3-2.06-23.341s.104-21.519 2.06-23.341c1.642-1.53 1.997-2.905 1.75-6.789l-.31-4.87-15.5-.153c-8.525-.084-17.378.225-19.674.685M3.033 162.75c-.02 14.933.338 24.25.932 24.25C6.383 187 7 182.16 7 163.177c0-18.376-.156-20.142-1.967-22.316-1.966-2.361-1.966-2.36-2 21.889m101.273-20.764c-1.334.552-2.654 2.444-3.368 4.828-2.104 7.022 2.516 12.508 10.062 11.946l3.5-.26v-17l-4-.211c-2.2-.115-4.987.198-6.194.697m119.099 1.117c-1.665 1.838-1.948 4.056-2.247 17.604-.485 22.028.463 25.293 7.342 25.293 6.778 0 7.879-3.938 7.346-26.281-.3-12.569-.601-14.794-2.251-16.616-2.523-2.785-7.667-2.785-10.19 0M201.05 225.44c-.657.791-1.049 2.704-.872 4.25.27 2.358.845 2.86 3.572 3.123 3.238.313 3.25.296 3.25-4.25 0-4.138-.221-4.563-2.378-4.563-1.307 0-2.915.648-3.572 1.44m-144.845 4.977c-1.576 7.739-1.603 7.583 1.314 7.583 2.108 0 2.43-.368 1.973-2.25-.301-1.238-.892-4.275-1.314-6.75l-.767-4.5zm110.648 7c-.314 11.042-.605 12.759-2.633 15.5L161.94 256h9.658l-.394-3.382c-.218-1.86.098-3.686.7-4.059.691-.427 1.096-4.904 1.096-12.118V225h-5.794zM20 243.941c0 2.718.493 5.246 1.096 5.618.603.373.906 1.975.673 3.559-.353 2.405-.071 2.882 1.703 2.882 1.841 0 2.072-.469 1.718-3.5-.25-2.142.022-3.5.701-3.5.664 0 1.109-2.005 1.109-5v-5h-7zm182.37-3.176c-.621.404-1.311 3.997-1.533 7.985-.401 7.232-.396 7.25 2.18 7.25 2.344 0 2.545-.311 2.187-3.382-.218-1.86.098-3.686.7-4.059.603-.372 1.096-2.45 1.096-4.618 0-3.981-1.65-5.113-4.63-3.176M53 246.441c0 .793.45 1.719 1 2.059s1 2.166 1 4.059c0 3.004.318 3.441 2.5 3.441s2.5-.437 2.5-3.441c0-1.893.43-3.707.956-4.032s.703-1.252.393-2.059c-.774-2.017-8.349-2.042-8.349-.027m182.081.408c-.595 1.111-1.081 3.624-1.081 5.585 0 3.064.327 3.566 2.321 3.566 2.203 0 2.288-.253 1.681-4.986-.758-5.905-1.457-6.901-2.921-4.165"/></svg>