<svg xmlns="http://www.w3.org/2000/svg" width="256" height="256"><path fill="#1976D2" fill-opacity=".016" fill-rule="evenodd" d="M0 128.004v128.004l128.25-.254 128.25-.254.254-127.75L257.008 0H0zm.485.496c0 70.4.119 99.053.265 63.672s.146-92.98 0-128S.485 58.1.485 128.5"/><path fill="#1976D2" fill-opacity=".211" fill-rule="evenodd" d="M20 128v108h216V20H20zm103.872-67.25c-1.243 1.586-1.208 1.621.378.378 1.666-1.307 2.195-2.128 1.372-2.128-.207 0-.995.788-1.75 1.75m39.628.444c-2.2.475-6.925 2.314-10.5 4.085-6.241 3.093-6.573 3.445-8.329 8.848l-1.829 5.627-8.332 3.713-8.332 3.712-8.666-4.06c-4.766-2.234-10.768-5.587-13.338-7.453-2.571-1.866-5.799-3.965-7.174-4.665l-2.5-1.272 2.25 2.45c3.205 3.49 2.823 4.161-2 3.518-6.178-.823-2.531.931 6.971 3.352 4.278 1.091 11.148 3.579 15.266 5.53l7.487 3.548-3.987 1.806c-2.193.994-4.374 1.457-4.846 1.028-.472-.428-2.923.53-5.446 2.13s-5.286 2.916-6.141 2.925c-2.553.027-25.474 10.735-26.532 12.395-.661 1.037-.598 1.913.195 2.706 1.46 1.46 3.081.847 21.893-8.275C107.37 99.079 114.458 96 115.36 96s1.64-.691 1.64-1.536c0-.877 2.019-2.401 4.713-3.555 4.493-1.926 4.887-1.942 8.424-.347 2.212.997 3.511 2.191 3.218 2.956q-.491 1.283 3.498 1.957c2.195.371 6.069 1.992 8.609 3.603s6.062 3.554 7.828 4.318c1.765.765 6.799 3.048 11.185 5.074 5.808 2.683 7.506 3.167 6.25 1.778-.949-1.048-1.725-2.208-1.725-2.577 0-.991 3.271-.786 5 .314 1.229.782 1.277 1.313.265 2.947-1.046 1.688-1 1.904.303 1.404.846-.325 1.401-1.477 1.235-2.559-.223-1.449-3.617-3.491-12.843-7.726-6.898-3.167-14.188-6.301-16.201-6.966-2.013-.664-5.324-2.337-7.357-3.716-2.51-1.703-3.92-2.149-4.39-1.388-.508.822-1.404.797-3.353-.09-1.462-.667-2.659-1.508-2.659-1.871 0-.362 3.297-2.107 7.326-3.878l7.327-3.22 4.756 2.039c6.101 2.615 6.408 2.595 14.134-.908C170.937 78.247 175 75.314 175 73.059c0-2.899-3.927-10.956-5.791-11.881-.94-.466-3.509-.459-5.709.016m-33.421 1.389c.048 1.165.285 1.402.604.605.289-.722.253-1.585-.079-1.917s-.568.258-.525 1.312m28.415 2.69c-10.419 4.771-10.017 4.537-9.187 5.368.715.714 17.486-6.498 18.347-7.89 1.178-1.906-.502-1.444-9.16 2.522m2.756 2.201c-3.988 1.871-7.25 3.847-7.25 4.392s3.6-.629 8-2.608c4.4-1.978 8-3.971 8-4.428 0-1.296-.996-.995-8.75 2.644m1.75 2.683c-3.575 1.687-5.979 3.264-5.343 3.507 1.211.461 14.343-5.124 14.343-6.101 0-1.158-2.688-.383-9 2.594m0 3.552c-4.125 1.949-6.959 3.743-6.297 3.985 1.395.512 16.249-5.825 16.278-6.944.034-1.351-2.369-.639-9.981 2.959m1.051 3.351c-9.055 4.292-9.66 4.664-8.872 5.452.711.712 18.821-7.631 18.821-8.67 0-1.345-1.015-1.017-9.949 3.218M119.5 107.551l-7 3.282 14.5.074 14.5.073-5.5-2.585c-9.363-4.402-8.956-4.382-16.5-.844m-39.334-.448c-1.283.492-2.155 1.429-1.937 2.083.613 1.839 2.163 1.981 4.311.395 2.59-1.911.86-3.717-2.374-2.478m66.208 20.001c-7.311 1.709-7.835 3.009-8.159 20.248-.256 13.624-.087 15.466 1.684 18.313 1.602 2.576 2.985 3.377 7.422 4.298 5.361 1.113 6.939.995 15.429-1.149l4.25-1.074V155h-4.5c-4.098 0-4.5.217-4.5 2.429 0 3.063-2.453 5.571-5.449 5.571-4.211 0-5.051-2.413-5.051-14.5 0-12.315.817-14.5 5.422-14.5 3.286 0 5.078 1.659 5.078 4.7 0 2.059.471 2.3 4.5 2.3h4.5v-11.683l-3.75-1.091c-5.967-1.735-12.417-2.164-16.876-1.122m37.379-.158c-7.821 1.54-9.769 5.972-9.691 22.054.085 17.503 2.812 21.412 14.938 21.412 12.232 0 14.887-3.908 14.887-21.912 0-12.242-1.179-16.964-4.887-19.569-2.976-2.09-10.04-3.01-15.247-1.985M50 129.899c0 1.641.45 3.261 1 3.601.589.364 1 6.324 1 14.5s-.411 14.136-1 14.5c-.55.34-1 2.166-1 4.059V170h7c7 0 7 0 7-2.8 0-1.54-.424-3.227-.942-3.75-.92-.928-1.737-21.104-.889-21.953.236-.235 1.803 4.169 3.483 9.788 2.752 9.202 3.289 10.215 5.413 10.215 2.131 0 2.647-.99 5.34-10.25 1.64-5.637 3.244-10.25 3.564-10.25.939 0-.078 21.408-1.067 22.45-.496.522-.902 2.21-.902 3.75 0 2.8 0 2.8 7 2.8h7v-3.441c0-1.893-.45-3.719-1-4.059-.589-.364-1-6.324-1-14.5s.411-14.136 1-14.5c.55-.34 1-1.96 1-3.601v-2.983l-7.75.292-7.749.292-2.465 9.25c-1.356 5.088-2.715 9.25-3.019 9.25s-1.702-4.162-3.105-9.25l-2.549-9.25-7.682-.292-7.681-.292zm57.313-1.797c-4.738 1.371-7.313 5.236-7.313 10.977 0 3.587.589 5.494 2.317 7.503l2.317 2.693-2.317 2.317c-1.734 1.734-2.317 3.446-2.317 6.804 0 2.467-.45 4.764-1 5.104s-1 1.964-1 3.609v2.991l5.75-.3 5.75-.3.5-7.789c.539-8.398 1.358-9.668 6.25-9.696 2.631-.014 2.75.199 2.75 4.926 0 2.718-.45 5.219-1 5.559s-1 2.166-1 4.059V170h7c7 0 7 0 7-2.8 0-1.54-.562-3.362-1.25-4.05-2.068-2.068-2.346-24.249-.354-28.243.882-1.768 1.604-4.27 1.604-5.561 0-2.315-.137-2.345-10.25-2.256-5.638.05-11.684.505-13.437 1.012m3.342 7.727c-3.81 4.21-.777 10.171 5.174 10.171H119v-12h-3.345c-1.971 0-4.025.751-5 1.829m74.38.105c-.569 1.064-1.035 6.719-1.035 12.566 0 12.181.8 14.5 5 14.5s5-2.319 5-14.5-.8-14.5-5-14.5c-1.873 0-3.303.698-3.965 1.934M53.5 193.5V205h6.569l-.663-5-.664-5h6.516l-.664 5-.663 5H70.5v-23h-3.242c-3.236 0-3.242.01-3 4.75.227 4.465.092 4.75-2.258 4.75-2.339 0-2.49-.307-2.338-4.75.16-4.699.128-4.75-3-4.75H53.5zm23.819-8.654c.313 1.566-.305 6.348-1.375 10.627-1.069 4.279-1.944 8.173-1.944 8.654s1.595.873 3.545.873c3.511 0 3.539-.035 2.889-3.5-.64-3.412-.575-3.5 2.566-3.5s3.206.088 2.566 3.5c-.65 3.465-.622 3.5 2.889 3.5 1.95 0 3.545-.421 3.545-.937 0-.515-.851-4.497-1.89-8.85-1.04-4.352-1.662-9.105-1.383-10.563.504-2.638.477-2.65-5.735-2.65H76.75zM104 182.779c0 .428 1.338 3.916 2.973 7.75 3.04 7.13 3.808 11.471 2.027 11.471-.55 0-1 .675-1 1.5 0 2.326 5.689 1.95 6.979-.461 1.403-2.621 7.021-18.592 7.021-19.959 0-.594-1.5-1.08-3.333-1.08-3.26 0-3.334.095-3.334 4.291 0 2.36-.479 5.148-1.065 6.195-.948 1.694-1.185 1.474-2.139-1.98-.59-2.136-.811-4.924-.492-6.195.535-2.134.265-2.311-3.529-2.311-2.259 0-4.108.35-4.108.779m21.5 10.721V205h3.75c3.659 0 5.213-1.978 2.75-3.5-1.249-.772-1.331-15.177-.09-15.944 1.396-.863 4.09.488 4.09 2.051 0 .766.9 1.393 2 1.393 1.619 0 2-.667 2-3.5V182h-14.5zm19.318-2.426c.284 5.944.045 9.463-.692 10.2-1.906 1.906-1.251 3.726 1.339 3.726 3.471 0 4.535-2.682 4.535-11.434 0-7.496.024-7.566 2.619-7.566h2.62l-.416 9.5-.415 9.5h6.092v-23h-16.116zm23.405-7.517c-2.456 1.719-3.088 7.178-1.065 9.201.798.798.84 1.559.136 2.45-.561.71-1.313 3.204-1.669 5.542-.641 4.203-.615 4.25 2.363 4.25 2.821 0 3.012-.241 3.012-3.8 0-3.961 1.386-6.2 3.839-6.2 1.14 0 1.316 1.042.847 5l-.592 5h6.406v-23h-5.527c-3.385 0-6.39.604-7.75 1.557m17.777-.036c0 .837 1.174 3.296 2.608 5.464l2.609 3.941-3.109 5.052c-1.709 2.779-3.108 5.495-3.108 6.037s1.575.985 3.5.985c2.958 0 3.502-.348 3.515-2.25.009-1.238.41-2.873.893-3.635.703-1.111 1.096-.976 1.985.684.609 1.138 1.107 2.774 1.107 3.635 0 1.073.944 1.566 3 1.566 3.754 0 3.886-1.802.5-6.785-1.375-2.024-2.5-4.259-2.5-4.967s1.125-3.07 2.5-5.248c3.211-5.086 3.147-6-.421-6-2.432 0-3.03.502-3.579 3-.362 1.65-1.084 3-1.604 3-.521 0-1.216-1.35-1.546-3-.5-2.499-1.081-3-3.475-3-1.907 0-2.875.512-2.875 1.521m-13.308 2.239c-2.759.624-1.882 5.642 1.058 6.06 1.906.27 2.25-.141 2.25-2.691 0-3.334-.628-3.974-3.308-3.369m-91.067 3.365c-.993 4.967-.762 5.875 1.5 5.875 1.847 0 2.043-.409 1.5-3.125-.344-1.719-.625-3.744-.625-4.5 0-2.642-1.755-1.349-2.375 1.75"/><path fill="#1976D2" fill-opacity=".561" fill-rule="evenodd" d="M20 128v108h216V20H20zm106.509-78.985c.345.558-.575 2.021-2.046 3.25-5.701 4.767-6.463 5.809-6.463 8.842 0 2.261-.383 2.96-1.408 2.567-2.146-.824-2.89 3.848-1.15 7.213 1.249 2.416 3.37 4.113 5.14 4.113.23 0 .418-1.377.418-3.059 0-1.785.417-2.802 1-2.441.587.363 1.015-.747 1.036-2.691.021-1.973 1.01-4.501 2.448-6.26l2.412-2.952 1.111 2.922c.611 1.607.892 3.758.625 4.78-.329 1.26-.056 1.694.849 1.347 1.683-.646 2.793 3.415 1.903 6.962-.602 2.397-.487 2.517 1.429 1.492 4.663-2.495 6.352-7.906 4.219-13.516-.647-1.701-1.476-2.351-2.5-1.958-1.131.434-1.532-.085-1.532-1.984 0-2.539-5.277-9.642-7.163-9.642-.525 0-.673.457-.328 1.015m29.857 14.372c-10.677 4.399-10.106 3.912-11.928 10.177-1.699 5.847-1.886 6.006-12.663 10.772l-5.573 2.465-8.841-4.09c-4.862-2.25-10.831-5.609-13.263-7.466C99.827 71.985 90.877 67 89.295 67c-.425 0 1.442 1.463 4.149 3.25 8.022 5.299 6.743 7.491-2.474 4.239-2.355-.831-4.45-1.342-4.656-1.136-.694.694 9.47 4.62 15.756 6.086 6.388 1.491 20.927 7.543 20.929 8.713.002 1.062-5.932 2.811-7.498 2.21-.793-.304-2.609.364-4.034 1.485-1.426 1.122-4.251 2.546-6.279 3.165-2.029.619-9.2 3.645-15.938 6.724-9.284 4.243-12.25 6.05-12.25 7.463 0 1.025.714 2.138 1.587 2.473 1.624.623 15.127-5.06 28.211-11.872 4.013-2.09 8.224-3.8 9.356-3.8 1.357 0 1.876-.479 1.522-1.402-.362-.944.971-2.056 4.072-3.399 4.307-1.864 4.83-1.891 7.932-.412 1.826.871 3.32 2.143 3.32 2.827s2.404 1.943 5.342 2.797c2.939.854 6.426 2.388 7.75 3.409 1.325 1.02 8.17 4.475 15.212 7.678 11.316 5.146 12.976 5.651 14.287 4.34.815-.816 1.233-2.125.928-2.91s-6.509-4.066-13.787-7.29c-7.277-3.224-16.157-7.261-19.732-8.971s-7.7-3.123-9.167-3.138c-2.55-.028-4.63-1.093-3.75-1.921.23-.215 3.342-1.711 6.917-3.323 6.137-2.768 6.696-2.851 10-1.485 7.738 3.2 8.161 3.171 16.982-1.175 4.604-2.269 9.231-5.298 10.283-6.733 1.905-2.597 1.902-2.629-.807-8-4.173-8.271-5.073-8.456-17.092-3.505m.761 2.742c-4.606 2.177-8.144 4.188-7.862 4.469.281.281 4.724-1.498 9.873-3.955s8.687-4.468 7.862-4.469-5.268 1.779-9.873 3.955m4.082 1.576c-4.01 1.951-7.064 3.773-6.788 4.05.574.574 15.579-6.366 15.579-7.206 0-.953-1.308-.483-8.791 3.156M163 70.5c-3.575 1.872-5.925 3.425-5.221 3.451 1.435.055 13.221-5.709 13.221-6.465 0-.944-1.569-.353-8 3.014m1.093 3.046c-4.073 1.911-7.182 3.698-6.908 3.972.538.538 15.815-6.271 15.815-7.048 0-.908-1.566-.367-8.907 3.076m.557 3.537c-4.318 2.099-8.368 4.003-9 4.23-.633.227-.925.651-.65.941.447.471 16.675-6.596 17.855-7.776 1.681-1.681-1.41-.7-8.205 2.605m-46.4 30.469c-3.987 1.863-7.25 3.626-7.25 3.918 0 .291 7.29.53 16.2.53s15.772-.372 15.25-.828c-1.229-1.07-15.237-7.198-16.209-7.09-.407.045-4.004 1.607-7.991 3.47m-39.804.535c-.369.598-.166 1.593.452 2.211.832.832 1.699.55 3.335-1.087L84.444 107h-2.663c-1.465 0-2.965.489-3.335 1.087m91.161-.36c-.324.324-.088 1.193.524 1.931 1.361 1.64 5.186 1.794 4.651.188-.458-1.374-4.333-2.961-5.175-2.119m-25.282 19.732c-5.637 2.452-6.786 5.502-7.152 18.996-.54 19.894 2.162 24.045 15.654 24.045 4.254 0 9.121-.611 10.923-1.371 3.219-1.358 3.25-1.438 3.25-8.25V154h-4.5c-4.016 0-4.5.245-4.5 2.277 0 3.089-2.695 6.723-4.985 6.723-4.155 0-5.015-2.486-5.015-14.5 0-8.991.327-11.684 1.571-12.929 3.06-3.059 8.429-.83 8.429 3.5 0 1.619.722 1.929 4.5 1.929h4.5v-11.923l-5.182-1.538c-6.351-1.886-13.267-1.918-17.493-.08m36.675-.153c-5.698 1.943-6.997 5.837-6.998 20.976-.002 15.238 1.151 19.048 6.43 21.254 1.927.805 5.783 1.464 8.568 1.464 7.204 0 11.751-2.161 13.536-6.432 2.236-5.352 2.037-27.915-.288-32.568-2.008-4.02-6.21-5.887-13.248-5.887-2.475 0-6.075.537-8 1.193m-131.333.361c-1.205 1.204-.697 5.063.833 6.333 2.15 1.784 2.176 25.723.032 28.559-.808 1.067-1.483 3.179-1.5 4.691L49 170h15v-3.3c0-1.815-.467-3.767-1.038-4.338-.619-.619-.922-5.026-.75-10.921l.288-9.883 3.038 10.471C68.317 161.608 68.782 162.5 71 162.5s2.683-.892 5.462-10.471l3.038-10.471.288 9.883c.172 5.895-.131 10.302-.75 10.921-.571.571-1.038 2.543-1.038 4.382v3.344l7.203-.294c6.943-.283 7.202-.384 7.186-2.794-.009-1.375-.55-3.483-1.203-4.684-1.732-3.19-1.613-26.717.144-28.175.786-.653 1.148-2.336.886-4.122L91.773 127H76.238l-2.348 9c-1.291 4.95-2.592 9-2.89 9s-1.599-4.05-2.89-9l-2.348-9h-7.715c-4.242 0-8.014.3-8.38.667m57.333.037c-3.046 1.108-6.993 5.742-7.587 8.906-.788 4.205 1.169 10.096 3.827 11.518 2.022 1.083 2.027 1.142.17 2.157-2.816 1.539-3.378 2.764-3.395 7.406-.008 2.305-.465 4.469-1.015 4.809s-1 2.166-1 4.059V170h12v-5.935c0-8.735 1.153-11.065 5.475-11.065 3.311 0 3.525.197 3.519 3.25-.004 1.787-.679 4.539-1.5 6.114-.822 1.576-1.494 3.938-1.494 5.25 0 2.303.262 2.386 7.5 2.386h7.5v-3.441c0-1.893-.45-3.719-1-4.059-.589-.364-1-6.324-1-14.5s.411-14.136 1-14.5c.55-.34 1-1.941 1-3.559V127l-11.25.079c-6.187.043-11.925.325-12.75.625m5.28 7.297c-4.594 1.888-3.716 9.349 1.247 10.595 4.535 1.138 5.608-.049 5.276-5.835-.328-5.689-1.745-6.723-6.523-4.76m73.277 1.222c-1.159 1.653-1.557 4.795-1.557 12.277 0 10.759 1.29 14.5 5 14.5s5-3.741 5-14.5c0-7.482-.398-10.624-1.557-12.277-1.989-2.84-4.897-2.84-6.886 0M52 183.3c0 .715.489 1.789 1.087 2.387 1.167 1.167.779 13.154-.553 17.063-.714 2.095-.482 2.25 3.384 2.25h4.151l-.663-5c-.658-4.956-.639-5 2.104-5 2.734 0 2.761.062 2.176 5l-.592 5H70.5v-23h-7.462l.617 4.5c.602 4.392.551 4.5-2.133 4.5-2.692 0-2.735-.094-2.074-4.5l.675-4.5h-4.062c-2.665 0-4.061.447-4.061 1.3m24.984 2.45c-.013 3.328-1.489 10.455-3.519 17-.648 2.089-.395 2.25 3.543 2.25 4.18 0 4.233-.044 3.642-3-.558-2.791-.394-3 2.35-3s2.908.209 2.35 3c-.591 2.956-.538 3 3.642 3 3.938 0 4.191-.161 3.543-2.25-2.03-6.545-3.506-13.672-3.519-17L89 182H77zM104 183.181c0 .65 1.455 4.742 3.234 9.093 3.112 7.609 3.164 7.962 1.375 9.27-2.206 1.613-1.481 4.456 1.137 4.456 3.748 0 6.087-2.991 8.796-11.249 1.488-4.538 3.1-8.679 3.582-9.201 2.016-2.186.816-3.55-3.124-3.55-3.943 0-4.001.053-4.07 3.75-.039 2.063-.422 4.65-.852 5.75-.737 1.886-.828 1.857-1.58-.5-.439-1.375-.744-3.963-.678-5.75.115-3.141-.014-3.25-3.85-3.25-2.387 0-3.97.471-3.97 1.181m20 .26c0 .793.45 1.719 1 2.059s1 3.94 1 8-.45 7.66-1 8-1 1.266-1 2.059c0 1.047 1.264 1.441 4.617 1.441 4.349 0 4.572-.13 3.845-2.25-.424-1.238-.962-5.512-1.195-9.5-.396-6.758-.287-7.25 1.604-7.25 1.116 0 2.389.632 2.829 1.405.44.772 1.7 1.56 2.8 1.75 1.665.287 2.052-.283 2.31-3.405l.311-3.75h-8.561c-6.786 0-8.56.299-8.56 1.441m20.773 7.715c.455 7.983.295 9.321-1.251 10.451-2.187 1.6-1.313 4.393 1.375 4.393 3.957 0 5.103-2.599 5.103-11.571V186h5.273l-.497 9.5-.497 9.5h3.977c3.696 0 3.92-.159 3.173-2.25-1.04-2.912-1.04-15.588 0-18.5.796-2.226.709-2.25-8.187-2.25h-8.991zm22.3-6.521c-2.5 3.178-2.563 4.22-.44 7.251 1.009 1.441 1.253 2.577.639 2.973-.547.352-1.309 2.778-1.694 5.391l-.701 4.75h2.955c3.213 0 4.168-1.393 4.168-6.082 0-2.304.445-2.918 2.114-2.918 1.938 0 2.057.373 1.438 4.5l-.675 4.5h7.623v-23h-6.677c-6.023 0-6.881.258-8.75 2.635M185 183.053c0 .579 1.125 2.709 2.5 4.732s2.5 4.37 2.5 5.215-1.125 3.191-2.5 5.215c-3.49 5.136-3.277 6.785.875 6.785 2.966 0 3.449-.371 3.988-3.066.702-3.511 2.637-3.052 2.637.625 0 2.123.456 2.441 3.5 2.441 4.32 0 4.49-1.455.887-7.602l-2.613-4.459 2.613-3.948c3.617-5.465 3.423-6.991-.887-6.991-3.044 0-3.5.318-3.5 2.441 0 3.677-1.935 4.136-2.637.625-.539-2.695-1.022-3.066-3.988-3.066-1.856 0-3.375.474-3.375 1.053m-13.638 4.447c-.893 2.327.365 4.5 2.607 4.5 1.59 0 2.031-.651 2.031-3s-.441-3-2.031-3c-1.118 0-2.291.675-2.607 1.5m-89.376 1.05c-.007 1.073-.285 2.962-.616 4.2-.485 1.808-.193 2.25 1.488 2.25 1.818 0 2.012-.426 1.485-3.25-.72-3.854-2.337-6.049-2.357-3.2"/><path fill="#1976D2" fill-opacity=".977" fill-rule="evenodd" d="M20 128v108h216V20H20zm106-79.152c0 1.124-1.755 3.374-4.05 5.191-2.405 1.905-4.278 4.35-4.612 6.02-.309 1.547-1.187 3.053-1.95 3.346-.812.311-1.388 1.961-1.388 3.975 0 2.616.738 4.063 3.077 6.031 4.054 3.412 5.238 3.302 4.423-.411-.488-2.223-.295-3 .747-3 .967 0 1.28-.863 1.001-2.765-.436-2.972 3.172-8.711 4.832-7.686.506.313.92 2.117.92 4.01 0 2.488.443 3.441 1.601 3.441 1.283 0 1.529.892 1.242 4.5-.413 5.195.662 5.69 4.738 2.184 2.081-1.79 2.692-3.215 2.692-6.282 0-5.084-1.062-8.402-2.689-8.402-.704 0-1.957-1.722-2.783-3.826-.827-2.104-2.92-4.835-4.652-6.068-3.054-2.174-3.149-2.182-3.149-.258m31.86 13.495c-10.528 4.376-12.219 5.77-13.832 11.407-1.446 5.053-1.604 5.205-9.044 8.696-4.165 1.955-8.052 3.554-8.639 3.554-2.074 0-18.812-8.215-21.715-10.658-3.329-2.801-17.915-10.365-19.858-10.298-.7.025.528.97 2.728 2.102 6.413 3.298 10.486 6.257 10.493 7.623.008 1.523-2.771.964-11.743-2.362C82.813 71.132 80 70.324 80 70.61c0 1.068 15.135 7.464 21.203 8.961C107.977 81.241 122 86.939 122 88.02c0 .363-1.197 1.204-2.659 1.871-1.949.887-2.845.912-3.353.09-.47-.761-1.878-.317-4.382 1.382-2.029 1.377-5.97 3.262-8.759 4.188-6.585 2.187-25.471 11.031-26.25 12.293-.83 1.342.264 3.889 1.949 4.535 1.356.521 14.165-5.009 27.652-11.938 3.684-1.893 7.664-3.441 8.844-3.441 1.262 0 2.349-.777 2.639-1.887.271-1.039 2.211-2.663 4.311-3.609 3.228-1.456 4.384-1.535 7.481-.513 2.446.807 3.487 1.671 3.131 2.599-.347.905.413 1.611 2.181 2.025 1.493.349 10.501 4.432 20.017 9.073 9.77 4.764 18.259 8.301 19.5 8.125 1.403-.2 2.315-1.136 2.521-2.588.285-2.009-1.055-2.925-11.5-7.861-6.503-3.072-14.162-6.404-17.02-7.403s-6.892-2.968-8.963-4.376c-2.259-1.535-4.13-2.195-4.675-1.65-.988.988-3.665.323-3.665-.911 0-.42 2.767-1.963 6.15-3.43l6.15-2.667 6.128 2.198 6.129 2.198 9.31-4.808c11.848-6.12 12.664-7.58 8.589-15.366-2.662-5.087-3.304-5.674-6.456-5.9-1.942-.139-6.011.794-9.14 2.094M165 63c-.901.582-1.025.975-.309.985.655.008 1.469-.435 1.809-.985.767-1.242.421-1.242-1.5 0m1 3c-.825.533-1.05.969-.5.969s1.675-.436 2.5-.969 1.05-.969.5-.969-1.675.436-2.5.969m-12 2c-1.925 1.054-3.05 1.916-2.5 1.916s2.575-.862 4.5-1.916 3.05-1.916 2.5-1.916-2.575.862-4.5 1.916m15 0c-.901.582-1.025.975-.309.985.655.008 1.469-.435 1.809-.985.767-1.242.421-1.242-1.5 0m-13 2.5c-1.375.786-2.05 1.429-1.5 1.429s2.125-.643 3.5-1.429 2.05-1.429 1.5-1.429-2.125.643-3.5 1.429m11 2c-2.475 1.325-4.145 2.43-3.71 2.455 1.062.061 8.71-3.869 8.71-4.475 0-.663.041-.68-5 2.02m-7.559.055c-1.83 1.467-1.798 1.487.559.365 3.061-1.458 3.628-1.92 2.358-1.92-.537 0-1.849.7-2.917 1.555M170 75c-.825.533-1.05.969-.5.969s1.675-.436 2.5-.969 1.05-.969.5-.969-1.675.436-2.5.969m-12.493 1.989c-.35.566.051.734.941.393 1.732-.665 2.049-1.382.611-1.382-.518 0-1.216.445-1.552.989M159 80c-1.925 1.054-3.05 1.916-2.5 1.916s2.575-.862 4.5-1.916 3.05-1.916 2.5-1.916-2.575.862-4.5 1.916m-42 27.837-7.5 3.663 8.799.29c4.84.159 12.49.158 17-.002l8.201-.291-7.805-3.748c-4.293-2.062-8.568-3.71-9.5-3.662s-5.07 1.735-9.195 3.75m-37.541.23c-.363.586-.409 1.317-.102 1.623.822.823 3.643-.461 3.643-1.659 0-1.357-2.697-1.33-3.541.036m91.731 1.551c.89.89 2.119 1.309 2.73.931 1.628-1.006.3-2.549-2.193-2.549-1.986 0-2.028.127-.537 1.618m-28.427 17.947c-4.813 2.612-5.763 5.978-5.763 20.417 0 15.784 1.096 19.324 6.706 21.668 4.353 1.819 17.298 1.505 21.044-.51 2.002-1.077 2.25-1.978 2.25-8.175V154h-4.531c-4.643 0-4.781.123-5.905 5.25-.491 2.241-1.147 2.75-3.548 2.75-4.173 0-5.016-2.31-5.016-13.743 0-11.337.965-13.615 5.545-13.093 2.387.272 3.043.905 3.46 3.336.482 2.812.797 3 5.005 3h4.49v-13l-3.5-1.194c-4.991-1.702-16.904-1.549-20.237.259m37.625-.635c-1.161.497-3.074 2.127-4.25 3.622-1.973 2.508-2.138 3.901-2.138 18.067v15.349l2.918 3.266c2.893 3.238 2.996 3.266 12.082 3.266s9.189-.028 12.082-3.266l2.918-3.266v-30.936l-2.908-3.255c-2.762-3.092-3.298-3.266-10.75-3.502-4.313-.137-8.792.158-9.954.655M49 130.5c0 1.925.45 3.5 1 3.5.621 0 1 5.5 1 14.5s-.379 14.5-1 14.5c-.55 0-1 1.575-1 3.5v3.5h15.21l-.679-4.25c-.374-2.338-.839-8.3-1.033-13.25l-.354-9 3.118 9.75C68.159 162.308 68.567 163 71 163s2.841-.692 5.738-9.75l3.118-9.75-.354 9c-.194 4.95-.659 10.912-1.033 13.25L77.79 170H93v-3.5c0-1.925-.45-3.5-1-3.5-.621 0-1-5.5-1-14.5s.379-14.5 1-14.5c.55 0 1-1.575 1-3.5V127H76.085l-2.043 6.858c-1.123 3.772-2.042 7.372-2.042 8 0 2.267-1.798 1.079-2.434-1.608-.358-1.512-1.319-5.113-2.136-8L65.944 127H49zm55.763-1.935c-5.932 3.219-7.72 12.955-3.337 18.164 2.282 2.713 2.319 2.949.634 4.001-1.17.731-2.032 2.964-2.488 6.444-.383 2.93-.943 7.036-1.244 9.127l-.548 3.8 6.36-.3 6.36-.301.5-8 .5-8 3.25-.313c3.232-.312 3.25-.289 3.25 4.191 0 2.477-.45 4.782-1 5.122s-1 2.166-1 4.059V170h15v-3.441c0-1.893-.45-3.719-1-4.059-.586-.362-1-6.157-1-14s.414-13.638 1-14c.55-.34 1-2.166 1-4.059V127l-11.75.04c-8.434.029-12.523.459-14.487 1.525m6.437 7.635c-1.547 1.547-1.547 6.053 0 7.6.66.66 2.46 1.2 4 1.2 2.693 0 2.8-.19 2.8-5s-.107-5-2.8-5c-1.54 0-3.34.54-4 1.2m74.26.044c-.29.755-.399 6.746-.243 13.314l.283 11.942h7v-26l-3.257-.314c-2.074-.2-3.448.185-3.783 1.058M52.925 181.19c-.041.17-.153 5.843-.25 12.605l-.175 12.296 4-.296 4-.295-.301-5.036c-.273-4.572-.104-5.035 1.839-5.035 2.002 0 2.096.342 1.471 5.347l-.668 5.347 4.329-.312c3.988-.286 4.3-.509 3.956-2.811-.206-1.375-.374-5.65-.374-9.5s.168-8.125.374-9.5c.345-2.304.033-2.524-3.978-2.813l-4.353-.312.696 5.062c.653 4.746.561 5.063-1.48 5.063-1.976 0-2.145-.437-1.844-4.75l.333-4.75-3.75-.31c-2.062-.171-3.784-.171-3.825 0m23.568.821c-.375.607-.412 2.174-.084 3.483.329 1.308-.12 5.22-.997 8.693C72.281 206.578 72.208 206 76.918 206c4.413 0 6.243-1.896 4.203-4.355-1.313-1.581-.488-2.645 2.049-2.645 1.459 0 1.785.671 1.584 3.25-.247 3.155-.13 3.259 3.996 3.557 4.949.359 5.163-.309 2.669-8.307-.858-2.75-1.64-7.475-1.739-10.5l-.18-5.5-6.163-.295c-3.723-.179-6.432.14-6.844.806m27.507.868c0 1.096 1.35 5.5 3 9.784 3.518 9.138 3.374 8.337 1.5 8.337-.933 0-1.5.944-1.5 2.5 0 2.017.496 2.5 2.566 2.5 4.494 0 6.189-1.749 8.47-8.74 1.213-3.718 2.875-8.219 3.695-10.002 2.14-4.659 1.116-6.448-3.473-6.069l-3.758.311-.028 4.694c-.015 2.582-.352 5.02-.75 5.417-.764.764-1.055-.896-1.159-6.611-.061-3.391-.195-3.51-4.313-3.807-3.682-.267-4.25-.041-4.25 1.686m20.935-1.629c-.036.137-.124 5.65-.196 12.25l-.132 12 4.105.303 4.105.303-.554-10.053c-.473-8.595-.332-10.053.975-10.053.841 0 1.764.9 2.052 2 .353 1.351 1.364 2 3.116 2 2.408 0 2.594-.323 2.594-4.5V181h-8c-4.4 0-8.029.113-8.065.25m18.943.5c-.067.412-.023 4.912.099 10 .148 6.189-.143 9.25-.878 9.25-.604 0-1.099 1.154-1.099 2.563 0 2.287.349 2.53 3.227 2.25 4.334-.42 5.74-3.487 5.758-12.563.012-5.971.297-7.25 1.614-7.25 1.38 0 1.551 1.336 1.25 9.75l-.349 9.75 4 .295 4 .296V181h-8.75c-4.812 0-8.805.338-8.872.75m25.364.284c-3.369 1.354-4.897 5.392-3.471 9.17.719 1.905.817 3.697.26 4.739-.493.921-1.039 3.448-1.214 5.616-.314 3.898-.279 3.941 3.183 3.941 3.406 0 3.513-.12 4-4.491.376-3.375.969-4.58 2.386-4.849 1.61-.307 1.784.057 1.195 2.491-1.55 6.394-1.373 6.827 2.919 7.144l4 .296V181l-5.5.063c-3.025.035-6.516.472-7.758.971m16.092.538c-.359.935-.136 2.426.494 3.314 4.303 6.058 4.44 6.98 1.73 11.605-1.407 2.401-2.558 5.325-2.558 6.497 0 1.853.492 2.092 3.75 1.822 3.443-.285 3.792-.596 4.264-3.81.401-2.731.675-3.098 1.25-1.668.405 1.007.736 2.695.736 3.75 0 1.529.717 1.918 3.531 1.918 4.848 0 5.266-1.983 1.655-7.853l-3.012-4.895 2.382-3.876c1.31-2.132 2.396-4.888 2.413-6.126.026-1.911-.497-2.25-3.469-2.25-3.044 0-3.5.318-3.5 2.441 0 3.467-1.8 4.148-2.182.826-.266-2.312-.854-2.819-3.575-3.081-2.34-.225-3.44.165-3.909 1.386m-14.002 5.006c-.725 1.888 2.016 4.943 3.572 3.981.603-.372 1.096-1.775 1.096-3.118 0-1.787-.544-2.441-2.031-2.441-1.118 0-2.304.71-2.637 1.578M82 191.941c0 1.682.45 3.059 1 3.059s1-1.098 1-2.441-.45-2.719-1-3.059c-.583-.361-1 .656-1 2.441"/></svg>