<?xml version="1.0" standalone="no"?>
<!DOCTYPE svg PUBLIC "-//W3C//DTD SVG 20010904//EN"
 "http://www.w3.org/TR/2001/REC-SVG-20010904/DTD/svg10.dtd">
<svg version="1.0" xmlns="http://www.w3.org/2000/svg"
 width="880.000000pt" height="880.000000pt" viewBox="0 0 880.000000 880.000000"
 preserveAspectRatio="xMidYMid meet">
<metadata>
Created by potrace 1.11, written by Peter Selinger 2001-2013
</metadata>
<g transform="translate(0.000000,880.000000) scale(0.100000,-0.100000)"
fill="#000000" stroke="none">
<path d="M4347 8708 c38 -59 37 -131 -2 -190 -39 -59 -76 -91 -190 -166 -108
-71 -164 -124 -198 -187 -43 -82 -49 -108 -50 -226 l-1 -117 -26 9 c-45 16
-120 27 -120 18 0 -18 -2 -24 -10 -34 -14 -18 -30 -122 -31 -205 -2 -110 47
-225 125 -297 68 -62 94 -83 106 -83 5 0 24 -9 42 -19 37 -21 158 -65 163 -59
2 2 -7 28 -20 57 -32 69 -37 90 -41 191 -4 112 1 119 63 97 26 -9 51 -17 55
-17 8 0 3 44 -11 110 -9 41 -7 150 4 200 13 60 52 124 103 171 52 48 116 130
130 169 9 24 9 23 36 -17 77 -116 98 -278 61 -465 -3 -16 -2 -28 2 -28 5 0 33
16 63 35 61 39 79 43 82 18 3 -43 15 -118 18 -118 1 0 3 -47 5 -105 2 -112
-12 -195 -45 -260 -25 -49 -25 -50 2 -45 63 13 155 51 238 100 56 33 125 130
156 219 17 48 33 202 24 226 -1 3 -3 16 -4 30 -10 95 -47 232 -90 333 -18 41
-20 42 -96 12 -39 -15 -61 -22 -74 -24 -5 0 -9 32 -9 72 1 40 -5 96 -12 125
-16 61 -64 172 -75 172 -4 0 -13 12 -19 28 -26 61 -210 218 -313 265 -43 20
-52 21 -41 5z"/>
<path d="M6537 8014 c-1 -1 -20 -5 -42 -8 -97 -13 -348 -91 -382 -118 -7 -6
-13 -7 -13 -4 0 4 -10 0 -22 -8 -12 -9 -30 -16 -40 -16 -10 0 -18 -5 -18 -12
0 -6 -3 -9 -6 -5 -3 3 -22 -3 -42 -13 -21 -10 -66 -32 -102 -48 -36 -16 -105
-49 -155 -72 -226 -105 -230 -108 -271 -198 -51 -111 -161 -462 -166 -529 -1
-6 -11 -16 -22 -22 -47 -23 -278 -131 -281 -131 -2 0 -47 -21 -102 -46 -199
-93 -219 -103 -288 -134 -38 -18 -95 -44 -125 -58 -30 -14 -58 -25 -62 -24 -5
1 -8 -2 -8 -8 0 -11 -28 1 -315 135 -49 24 -115 54 -145 68 -30 14 -95 44
-145 67 -49 23 -133 61 -185 85 -197 89 -237 111 -275 153 -57 64 -279 232
-305 232 -5 0 -10 4 -10 9 0 5 -8 11 -17 15 -10 3 -36 17 -58 31 -99 61 -346
188 -545 278 -61 28 -265 110 -265 107 0 -1 -17 6 -39 15 -21 9 -40 14 -42 12
-2 -2 15 -11 39 -21 60 -26 251 -120 257 -127 3 -3 13 -8 23 -12 29 -11 276
-160 297 -179 11 -10 22 -18 26 -18 11 0 95 -70 146 -122 60 -61 70 -94 37
-121 -21 -17 -34 -18 -104 -13 -78 6 -233 41 -325 72 -25 9 -49 17 -55 18 -5
2 -19 7 -30 11 -109 44 -135 53 -135 48 0 -3 -6 0 -13 6 -8 6 -17 8 -20 4 -4
-3 -7 -1 -7 5 0 7 -7 12 -15 12 -8 0 -23 4 -33 10 -34 19 -200 90 -211 90 -6
0 -11 5 -11 10 0 6 -8 10 -17 10 -23 0 -9 -12 57 -46 30 -15 67 -37 82 -47 16
-10 28 -16 28 -13 0 3 15 -3 33 -13 61 -36 233 -119 342 -166 17 -7 57 -24 90
-38 90 -39 302 -116 360 -131 6 -2 17 -6 25 -9 75 -29 263 -67 351 -71 36 -2
72 -7 80 -12 8 -5 16 -9 19 -10 3 0 32 -13 65 -28 33 -16 132 -62 220 -104
158 -73 225 -104 235 -107 6 -2 70 -32 213 -99 55 -25 102 -46 107 -46 4 0 12
-6 18 -13 9 -10 -10 -23 -86 -57 -53 -24 -142 -65 -196 -92 -55 -26 -103 -45
-108 -42 -4 3 -15 22 -24 42 -29 63 -30 64 -91 30 -31 -17 -74 -48 -97 -69
-22 -22 -44 -39 -47 -39 -3 0 -18 -11 -34 -24 -50 -43 -283 -155 -356 -172
-11 -2 -27 -6 -36 -9 -10 -3 -49 -12 -88 -20 -38 -9 -95 -28 -125 -42 -30 -15
-57 -27 -60 -28 -7 -2 -55 -24 -220 -100 -80 -37 -172 -80 -205 -95 -33 -15
-113 -53 -179 -84 -65 -31 -119 -56 -121 -56 -3 0 -117 -53 -292 -136 -40 -19
-76 -34 -81 -34 -14 0 -70 -63 -80 -90 -14 -37 -8 -115 12 -144 50 -78 137
-99 231 -56 59 26 149 68 299 139 59 28 110 51 112 51 3 0 110 50 289 136 33
16 62 29 65 29 3 1 30 13 60 27 30 14 93 44 140 66 176 82 258 125 340 178 75
48 276 155 304 161 6 1 31 9 56 18 25 9 53 19 63 21 9 2 27 7 40 10 12 3 42 8
67 10 49 6 116 30 142 52 16 13 15 16 -1 45 -37 68 -39 65 62 111 50 24 124
58 162 76 39 19 72 34 75 35 3 0 41 18 84 38 51 24 86 35 99 31 19 -6 131 -57
277 -127 36 -17 68 -31 72 -31 17 -2 17 -18 -2 -65 -11 -28 -20 -53 -20 -55 0
-10 115 -56 126 -52 8 3 14 2 14 -2 0 -4 15 -8 33 -9 17 -2 57 -10 87 -18 30
-9 60 -17 67 -18 7 -2 16 -6 19 -10 4 -4 15 -7 24 -7 55 0 327 -147 435 -236
23 -18 81 -52 130 -74 50 -23 118 -55 153 -71 34 -16 92 -43 130 -60 120 -55
195 -90 310 -145 62 -30 115 -54 117 -54 2 0 48 -21 102 -46 54 -26 126 -59
161 -75 34 -16 92 -43 130 -60 134 -62 158 -71 197 -71 148 2 215 165 113 275
-21 22 -97 62 -248 130 -30 14 -95 44 -145 67 -110 52 -218 101 -225 102 -3 1
-30 14 -60 29 -30 15 -120 57 -200 94 -243 113 -273 126 -340 158 -36 17 -67
31 -70 32 -3 1 -16 6 -30 12 -14 6 -42 18 -62 26 -21 9 -38 14 -38 12 0 -3
-12 0 -27 6 -16 6 -35 12 -43 14 -27 7 -177 63 -196 74 -11 6 -53 26 -96 45
-86 38 -200 109 -272 169 -51 43 -135 89 -148 81 -4 -3 -16 -25 -27 -49 -11
-25 -25 -45 -32 -45 -6 0 -51 18 -98 41 -47 22 -107 50 -133 61 -27 11 -48 23
-48 27 0 3 40 24 88 45 48 22 123 57 167 78 44 21 85 38 91 38 6 0 17 7 24 15
7 8 18 15 26 15 7 0 73 29 146 63 73 35 151 72 173 82 22 10 47 21 55 26 16 8
25 5 155 -56 105 -49 281 -120 360 -145 117 -36 143 -35 253 17 97 45 143 65
152 68 3 0 19 8 36 18 17 9 34 13 38 10 3 -4 6 -1 6 5 0 7 5 12 10 12 6 0 57
23 115 50 58 28 107 50 110 50 3 0 11 5 18 10 7 6 51 30 98 53 78 40 172 98
224 137 52 41 142 139 159 175 10 22 22 46 26 54 3 8 3 35 -1 60 -7 44 -27 90
-149 346 -29 61 -65 137 -80 170 -33 72 -72 108 -133 121 -25 6 -156 12 -160
8z m103 -127 c0 -6 -162 -89 -180 -92 -3 -1 -45 -21 -95 -45 -49 -23 -96 -44
-104 -46 -8 -1 -17 -6 -20 -11 -3 -4 -12 -9 -20 -11 -8 -2 -58 -24 -110 -49
-53 -25 -123 -58 -156 -73 -33 -15 -100 -46 -150 -69 -49 -23 -102 -48 -117
-56 -38 -22 -57 -18 -69 11 -5 15 -8 28 -7 28 2 1 57 26 123 56 66 30 123 58
126 63 3 5 8 8 10 7 7 -3 51 16 183 79 70 34 130 61 131 61 2 0 175 80 400
185 28 13 31 12 42 -8 7 -12 12 -25 13 -30z m94 -104 c3 -10 8 -23 11 -29 5
-9 -125 -82 -160 -90 -5 -1 -68 -29 -138 -63 -71 -34 -133 -61 -138 -61 -5 0
-9 -5 -9 -11 0 -5 -4 -8 -9 -4 -5 3 -12 1 -16 -5 -3 -5 -14 -10 -24 -10 -10 0
-24 -7 -31 -15 -6 -8 -15 -14 -18 -13 -8 1 -43 -14 -195 -86 -55 -25 -102 -46
-106 -46 -8 0 -34 50 -29 55 2 2 32 17 68 33 36 16 108 50 160 74 52 25 129
60 170 79 41 18 77 37 78 41 2 5 12 8 22 8 11 0 43 14 72 31 29 17 54 30 56
29 3 -2 69 26 92 39 23 13 124 60 131 61 4 0 9 -8 13 -17z m77 -170 c5 -14 8
-27 7 -28 -3 -3 -102 -49 -225 -106 -35 -16 -92 -42 -128 -59 -36 -16 -95 -44
-132 -62 -38 -17 -70 -32 -73 -33 -3 0 -41 -18 -84 -38 -43 -20 -82 -37 -86
-37 -7 0 -33 51 -28 55 16 11 203 95 214 95 8 0 14 5 14 10 0 6 4 10 9 10 5 0
51 19 103 43 51 24 122 57 158 73 35 16 96 45 135 64 88 44 103 46 116 13z
m82 -172 c5 -20 4 -20 -238 -131 -49 -22 -97 -45 -106 -50 -9 -4 -70 -33 -135
-63 -65 -30 -153 -70 -194 -90 -139 -64 -172 -78 -175 -75 -9 11 -26 50 -23
54 3 3 209 99 378 177 30 13 96 44 145 67 142 66 200 93 205 95 3 1 30 13 60
27 57 27 73 25 83 -11z m57 -192 c0 -10 -15 -23 -37 -32 -21 -8 -78 -33 -126
-56 -49 -23 -92 -41 -98 -41 -5 0 -9 -4 -9 -10 0 -5 -9 -10 -19 -10 -11 0 -23
-4 -26 -10 -3 -5 -15 -10 -26 -10 -10 0 -19 -3 -19 -7 0 -5 -21 -17 -48 -27
-26 -11 -92 -41 -147 -67 -225 -106 -297 -139 -301 -139 -3 0 -35 -15 -72 -34
l-68 -33 -17 29 -17 29 93 43 c50 24 115 53 142 66 93 42 220 102 270 127 28
13 51 24 53 24 1 -1 48 21 105 47 56 27 123 57 149 68 27 10 48 22 48 27 0 4
6 7 13 7 6 0 39 14 72 29 54 26 61 27 73 13 6 -9 12 -23 12 -33z m-4891 -1813
c38 -46 -142 -203 -217 -190 -37 7 -72 52 -72 92 0 66 85 108 221 111 38 1 60
-4 68 -13z m4852 -40 c60 -18 94 -46 104 -86 18 -73 -62 -127 -140 -95 -11 5
-22 11 -25 14 -3 4 -21 18 -40 32 -88 66 -123 116 -101 143 15 18 129 13 202
-8z"/>
<path d="M4365 5605 c-16 -8 -70 -33 -120 -55 -49 -23 -103 -48 -119 -56 -16
-8 -35 -14 -41 -14 -7 0 -18 -7 -25 -15 -7 -8 -18 -15 -25 -15 -7 0 -55 -20
-106 -44 -157 -74 -230 -106 -240 -106 -5 0 -9 -5 -9 -12 0 -6 -3 -8 -6 -5 -4
3 -16 1 -28 -5 -11 -7 -23 -13 -26 -14 -10 -2 -140 -64 -140 -67 0 -5 1819 -1
1825 5 4 3 -3 9 -15 13 -12 4 -68 28 -123 55 -56 26 -124 57 -152 70 -27 12
-70 31 -95 42 -25 12 -87 40 -137 64 -51 24 -95 44 -98 44 -3 0 -46 20 -95 45
-50 24 -93 44 -95 44 -3 0 -18 7 -33 15 -47 24 -66 26 -97 11z"/>
<path d="M5714 4401 c-2 -2 -30 -5 -61 -6 -70 -3 -128 -12 -208 -32 -33 -8
-67 -16 -76 -18 -18 -4 -112 -46 -119 -54 -3 -4 -23 -19 -46 -34 -73 -50 -141
-142 -178 -245 -14 -40 -24 -72 -21 -72 2 0 0 -11 -4 -24 -5 -13 -12 -52 -16
-87 -9 -80 -9 -1214 -1 -1289 11 -93 47 -222 79 -285 48 -92 136 -174 237
-222 91 -43 174 -69 255 -78 28 -3 66 -8 85 -11 39 -6 272 -5 338 1 67 5 217
30 217 35 0 1 9 3 20 4 32 4 134 35 207 62 37 14 71 26 75 25 4 0 15 7 24 15
9 8 18 12 20 10 2 -3 15 3 28 13 l23 18 0 344 c-1 189 -1 352 -1 362 -1 16
-18 17 -252 15 l-251 -3 -3 -95 c-3 -119 -11 -162 -43 -225 -47 -94 -123 -138
-237 -137 -76 0 -115 13 -161 52 -31 27 -67 93 -80 150 -11 46 -11 1115 -1
1160 14 59 42 114 75 145 70 66 211 79 320 30 94 -42 124 -100 128 -245 1 -47
3 -90 3 -95 1 -7 87 -10 249 -9 136 1 249 2 252 3 9 2 3 642 -6 651 -25 24
-308 117 -414 136 -14 2 -34 6 -46 9 -29 6 -99 15 -166 19 -31 2 -62 7 -67 11
-6 3 -11 1 -11 -5 0 -6 -5 -8 -12 -4 -12 8 -147 12 -154 5z"/>
<path d="M7685 4401 c-2 -2 -32 -5 -67 -7 -53 -2 -186 -25 -223 -38 -5 -1 -19
-6 -30 -10 -82 -28 -175 -86 -227 -140 -32 -33 -58 -66 -58 -72 0 -7 -3 -14
-7 -16 -13 -5 -69 -134 -78 -178 -27 -131 -28 -182 -29 -755 0 -330 4 -624 7
-654 32 -242 136 -414 302 -499 53 -26 160 -61 209 -68 21 -2 42 -6 45 -8 35
-22 431 -22 511 -1 8 2 29 7 45 10 58 10 70 13 136 38 181 68 307 213 344 394
5 21 10 45 12 53 14 63 17 198 17 715 -1 685 -2 705 -50 840 -64 181 -173 286
-355 344 -105 33 -244 53 -349 50 -19 0 -39 0 -45 0 -5 0 -32 2 -58 3 -27 2
-50 2 -52 -1z m190 -461 c65 -25 129 -98 140 -162 3 -13 9 -44 13 -70 5 -25 8
-279 7 -565 -2 -541 -4 -565 -47 -648 -35 -66 -110 -107 -198 -108 -144 -1
-212 53 -250 198 -16 59 -23 1048 -8 1125 5 25 10 53 11 62 2 10 6 21 10 24 4
4 7 16 7 26 0 10 5 18 10 18 6 0 10 6 10 14 0 23 70 75 120 90 49 14 132 12
175 -4z"/>
<path d="M209 4350 c-1 -3 -2 -81 -3 -173 l-1 -169 37 -19 c39 -20 64 -50 75
-90 9 -31 13 -1400 5 -1414 -4 -5 -8 -19 -9 -30 -6 -35 -47 -86 -75 -92 -14
-3 -28 -13 -30 -22 -3 -14 -3 -318 1 -346 1 -7 135 -9 383 -8 211 0 388 2 394
2 9 1 12 53 12 180 l0 179 -27 11 c-37 16 -68 67 -79 130 -9 50 -15 1129 -6
1106 6 -15 55 -175 64 -210 5 -16 17 -59 28 -95 33 -106 83 -274 87 -290 2 -8
4 -15 5 -15 1 0 3 -7 5 -15 2 -8 13 -46 25 -85 12 -38 23 -77 25 -85 30 -111
107 -366 118 -387 10 -22 16 -23 133 -23 l122 0 11 33 c6 17 11 35 11 39 1 4
8 27 16 50 9 24 17 50 19 59 5 25 74 256 97 324 11 33 21 69 24 81 2 11 13 50
25 85 11 35 22 71 24 80 2 8 11 40 20 70 29 97 67 224 70 239 5 21 46 144 50
148 7 7 -3 -1097 -10 -1128 -12 -49 -44 -94 -77 -109 l-28 -13 2 -181 3 -181
387 0 c213 0 391 3 394 7 11 11 10 339 -1 353 -5 7 -17 14 -25 16 -8 2 -26 16
-41 32 -26 27 -33 49 -45 134 -7 52 -7 1268 0 1317 16 103 22 113 95 151 24
13 24 14 25 183 1 94 -1 172 -4 172 -3 1 -200 2 -438 3 -424 2 -443 0 -448
-29 -1 -5 -9 -37 -18 -70 -9 -33 -18 -67 -20 -75 -2 -8 -11 -40 -20 -71 -9
-31 -19 -65 -21 -75 -5 -23 -40 -146 -54 -191 -5 -18 -7 -33 -4 -33 3 0 1 -6
-4 -12 -6 -7 -11 -20 -11 -28 -1 -8 -13 -55 -27 -105 -26 -92 -53 -188 -60
-215 -30 -120 -41 -149 -48 -139 -2 2 -20 69 -41 149 -45 169 -55 207 -67 238
-5 13 -7 28 -4 33 4 5 1 9 -6 9 -7 0 -10 2 -7 5 3 3 -3 36 -14 73 -11 37 -21
74 -23 82 -4 15 -24 89 -49 183 -8 28 -24 86 -36 127 -11 41 -23 86 -26 100
-3 14 -10 30 -15 35 -10 10 -868 16 -870 5z"/>
<path d="M3577 4353 c-1 -1 -25 -4 -52 -7 -77 -9 -116 -17 -160 -32 -22 -8
-50 -17 -63 -20 -13 -2 -41 -16 -63 -29 -21 -14 -42 -25 -45 -25 -9 0 -21 -11
-94 -82 -61 -59 -76 -77 -106 -128 -30 -49 -76 -169 -69 -180 3 -5 2 -11 -3
-14 -15 -9 -21 -187 -10 -281 22 -168 119 -315 266 -402 41 -24 54 -43 30 -43
-17 0 -120 -52 -147 -75 -54 -45 -86 -94 -96 -145 -2 -11 -7 -25 -10 -30 -3
-6 -8 -90 -10 -188 -2 -97 -6 -190 -11 -207 -11 -44 -46 -93 -74 -105 l-26
-11 1 -181 0 -182 314 -1 c325 0 339 2 342 41 1 8 2 17 3 22 15 59 19 144 21
392 3 299 9 365 43 423 20 34 72 63 133 73 46 7 236 13 254 7 11 -4 12 -425 2
-468 -3 -11 -7 -27 -9 -35 -4 -21 -40 -58 -74 -79 l-29 -18 -1 -174 c0 -96 3
-176 7 -179 6 -4 729 -5 783 -1 10 1 13 36 13 181 -1 166 -2 180 -19 186 -30
9 -75 57 -83 89 -4 17 -10 46 -12 65 -8 55 -7 1279 0 1341 9 82 22 107 70 137
l43 27 1 167 c0 117 -3 168 -11 169 -18 3 -1047 4 -1049 2z m374 -413 c1 -3 2
-141 3 -307 l1 -303 -40 -1 c-117 -3 -232 2 -269 12 -128 33 -196 146 -190
315 5 180 78 262 248 283 61 7 245 8 247 1z"/>
<path d="M369 1341 c-1 -3 -3 -43 -4 -89 -3 -82 -2 -83 28 -112 l32 -30 0
-406 0 -406 -31 -27 c-30 -26 -31 -27 -30 -121 l1 -95 217 0 216 -1 5 23 c2
13 0 26 -5 29 -4 3 -5 10 -2 16 10 15 10 108 1 108 -5 0 -6 4 -3 9 4 5 -6 18
-20 28 -33 24 -40 65 -39 223 l0 115 142 3 142 3 -2 -149 c-2 -122 -6 -154
-20 -175 -10 -15 -24 -27 -32 -27 -12 0 -15 -19 -15 -103 l0 -102 208 1 c114
1 213 2 220 3 8 1 12 27 12 94 0 92 0 92 -32 119 l-33 27 -3 353 c-3 423 -1
452 39 489 28 26 29 31 29 116 l0 90 -220 0 -220 0 0 -93 c0 -83 2 -95 20
-104 35 -19 43 -51 47 -187 l3 -131 -139 -1 c-105 -1 -140 1 -143 11 -5 14 -1
233 5 260 4 22 42 59 51 51 7 -7 7 -2 9 60 0 24 -3 48 -7 55 -4 7 -3 12 2 12
10 0 8 42 -2 58 -6 10 -425 13 -427 3z"/>
<path d="M1684 1239 c-1 -79 3 -109 12 -113 25 -10 27 -73 4 -173 -12 -54 -24
-109 -26 -123 -2 -14 -7 -36 -10 -50 -3 -14 -8 -36 -10 -49 -3 -13 -12 -54
-20 -90 -8 -36 -17 -79 -20 -96 -32 -173 -61 -263 -92 -282 -17 -10 -19 -22
-18 -110 l1 -98 210 0 210 0 1 97 c1 87 -1 98 -18 103 -10 4 -23 15 -28 26
-12 21 -11 111 1 130 5 8 51 12 142 13 l136 1 5 -29 c16 -80 2 -135 -39 -148
-6 -2 -10 -43 -10 -98 l0 -95 217 0 c139 0 219 3 221 10 1 5 2 48 2 95 -2 78
-4 88 -28 112 -23 23 -47 83 -53 131 -1 9 -2 18 -4 20 -1 1 -3 9 -5 17 -1 8
-19 92 -40 185 -20 94 -39 184 -42 200 -2 17 -9 48 -15 70 -34 131 -38 203
-14 220 15 11 19 45 17 161 l-1 71 -343 0 -342 0 -1 -108z m351 -156 c5 -21 9
-42 10 -48 5 -20 15 -81 21 -120 3 -22 8 -47 10 -55 3 -8 12 -49 20 -90 27
-142 26 -173 -2 -149 -11 9 -14 9 -14 -1 0 -9 -4 -9 -12 -2 -7 5 -21 7 -30 3
-9 -3 -40 -4 -68 -3 l-51 4 6 37 c3 20 8 48 11 61 3 14 8 40 10 59 3 19 9 42
14 51 5 10 7 20 5 22 -3 3 2 38 10 79 8 41 17 85 19 99 3 14 5 27 6 30 4 11 7
26 8 48 3 33 18 19 27 -25z"/>
<path d="M3160 1256 c0 -87 2 -94 28 -124 15 -17 35 -52 45 -79 11 -26 23 -57
27 -68 8 -18 33 -85 103 -270 15 -39 27 -76 27 -83 0 -6 4 -12 8 -12 5 0 9 -6
9 -12 1 -7 12 -42 26 -78 79 -207 75 -193 58 -222 -18 -31 -49 -47 -101 -51
l-35 -2 -2 -102 -2 -102 32 -7 c46 -11 177 -12 183 -2 3 4 9 6 14 3 20 -12
120 37 163 80 67 68 106 160 238 562 66 203 123 375 126 383 4 8 6 18 5 22 -1
3 13 22 31 42 32 34 33 37 32 123 l-2 88 -211 1 c-117 1 -212 -1 -213 -5 0 -3
-2 -44 -2 -91 -2 -76 0 -86 20 -104 26 -22 29 -58 12 -120 -6 -21 -12 -46 -14
-55 -2 -9 -13 -50 -25 -91 -11 -41 -23 -82 -25 -90 -12 -57 -27 -100 -33 -100
-5 0 -14 24 -21 53 -7 28 -19 71 -27 94 -7 24 -16 55 -19 70 -3 16 -14 57 -25
93 -25 81 -25 122 -2 143 15 14 18 32 18 109 l-1 93 -222 1 -223 1 0 -91z"/>
<path d="M4285 1343 c-6 -2 -10 -40 -9 -88 1 -81 3 -87 30 -114 38 -37 37 -28
37 -456 0 -357 -6 -425 -38 -425 -8 0 -18 -8 -23 -17 -9 -21 -9 -163 0 -179 5
-8 376 -12 444 -5 8 1 11 31 10 94 -1 85 -3 92 -22 95 -11 2 -29 17 -40 35
-18 30 -19 55 -20 427 -1 217 3 400 7 406 12 15 132 8 167 -10 43 -22 61 -56
64 -122 l3 -59 133 -1 132 -2 -2 212 -3 211 -430 1 c-236 0 -434 -1 -440 -3z"/>
<path d="M5316 1341 c-2 -3 -4 -44 -4 -90 0 -81 1 -84 32 -111 28 -25 31 -34
31 -84 0 -31 2 -56 5 -56 5 0 4 -112 0 -135 -1 -5 -1 -14 0 -20 1 -5 1 -118 1
-251 -1 -299 -9 -328 -97 -339 -21 -3 -39 -7 -42 -9 -8 -9 -9 -57 -1 -62 5 -2
4 -15 -1 -28 -4 -12 -5 -28 -1 -35 5 -7 6 -23 3 -37 -2 -14 1 -26 9 -29 38
-13 81 -19 149 -19 85 0 147 22 192 69 26 26 80 125 77 142 -1 4 0 10 1 13 8
17 10 117 12 463 l1 387 24 1 c12 0 67 1 121 1 l97 1 2 -388 c2 -414 -1 -440
-47 -465 -19 -10 -21 -18 -18 -108 l3 -97 215 0 215 0 3 96 c3 92 2 97 -21
112 -14 9 -29 29 -35 44 -5 17 -9 184 -8 415 l1 387 33 29 c31 28 32 32 34
109 1 44 -2 84 -5 90 -7 11 -975 15 -981 4z"/>
<path d="M6845 1344 c-6 -1 -37 -7 -70 -15 -33 -7 -67 -17 -75 -24 -8 -6 -28
-17 -44 -25 -38 -20 -102 -93 -128 -149 -18 -38 -22 -65 -22 -151 -1 -90 2
-112 23 -157 22 -50 65 -97 121 -135 l25 -16 -29 -11 c-91 -36 -117 -83 -122
-221 -2 -52 -6 -104 -8 -115 -3 -11 -5 -23 -5 -28 -1 -4 -12 -17 -26 -29 -23
-20 -24 -27 -23 -117 l2 -96 173 -1 173 0 11 33 c6 18 12 117 13 220 2 125 8
197 16 215 17 36 61 52 147 54 60 1 73 -2 74 -15 4 -57 0 -226 -6 -248 -7 -28
-28 -53 -44 -53 -6 0 -11 -3 -12 -7 -1 -14 -1 -137 0 -168 l1 -31 215 0 c118
0 216 3 216 6 1 3 3 46 4 97 2 86 0 92 -21 104 -13 6 -28 25 -33 42 -7 18 -10
170 -8 419 l2 390 30 26 c29 26 30 30 31 118 l1 91 -296 0 c-163 0 -301 -1
-306 -3z m222 -227 c9 -6 9 -309 0 -323 -6 -10 -117 -10 -162 0 -71 16 -104
75 -101 177 4 94 38 134 126 146 19 3 36 6 37 7 4 3 94 -3 100 -7z"/>
<path d="M7589 1326 c-1 -12 0 -54 1 -95 1 -65 4 -76 25 -93 14 -10 30 -30 37
-43 30 -55 143 -241 157 -259 9 -10 14 -19 12 -20 -3 0 8 -20 22 -43 18 -28
24 -48 19 -60 -20 -50 -231 -401 -260 -432 -34 -36 -37 -50 -33 -201 l1 -25
192 0 192 0 1 95 c1 97 20 200 36 200 5 0 9 6 9 13 0 18 28 75 41 82 5 4 9 2
9 -4 0 -5 13 -38 29 -73 37 -81 44 -114 47 -218 1 -47 2 -87 3 -90 0 -3 85 -5
189 -5 l187 0 3 93 3 93 -38 44 c-21 24 -89 132 -152 240 l-114 196 19 39 c10
22 22 40 27 40 4 0 7 4 7 9 0 17 171 296 200 327 29 30 30 35 30 121 l0 90
-182 -1 -183 -1 -6 -100 c-5 -86 -11 -110 -39 -168 -18 -37 -36 -70 -40 -72
-9 -6 -65 116 -75 165 -4 19 -7 66 -7 105 l1 71 -185 1 c-180 0 -184 0 -185
-21z"/>
</g>
</svg>
