<svg width="86" height="86" viewBox="0 0 86 86" fill="none" xmlns="http://www.w3.org/2000/svg">
<circle cx="43" cy="43" r="43" fill="#FF3939"/>
<path d="M37.3719 40.0351C36.31 39.7802 35.3993 39.3457 34.6397 38.7314C33.8904 38.1341 33.3709 37.4191 33.0812 36.5865L35.793 34.6458C36.0865 35.1625 36.4421 35.6006 36.8598 35.96C37.2943 36.3091 37.743 36.5391 38.2058 36.6502C38.7095 36.7711 39.137 36.7297 39.4882 36.5261C39.8395 36.3224 40.0706 35.9892 40.1817 35.5263C40.2895 35.0771 40.2468 34.6853 40.0535 34.3509C39.8602 34.0166 39.5525 33.7988 39.1305 33.6975C38.8446 33.6289 38.5628 33.6332 38.2851 33.7105C38.0242 33.7775 37.8064 33.9052 37.6316 34.0936L34.3032 33.2948L38.1846 24.6808L45.4542 26.4255L44.6063 29.9581L40.1343 28.8849L39.5323 30.4033C39.5323 30.4033 39.6105 30.4077 39.7668 30.4164C39.9263 30.4115 40.1695 30.4482 40.4962 30.5266C41.4355 30.7521 42.2169 31.1556 42.8404 31.7371C43.4808 32.3084 43.9202 32.9969 44.1587 33.8028C44.3972 34.6088 44.4054 35.4746 44.1832 36.4003C43.948 37.3805 43.5023 38.1877 42.8461 38.8221C42.1899 39.4565 41.3892 39.8834 40.4439 40.1029C39.5122 40.3256 38.4882 40.303 37.3719 40.0351ZM48.8383 42.787C47.7764 42.5322 46.8657 42.0976 46.1061 41.4834C45.3568 40.886 44.8373 40.171 44.5476 39.3384L47.2594 37.3977C47.5529 37.9145 47.9085 38.3526 48.3261 38.712C48.7607 39.061 49.2094 39.2911 49.6722 39.4022C50.1759 39.5231 50.6034 39.4817 50.9546 39.278C51.3058 39.0744 51.537 38.7411 51.6481 38.2782C51.7559 37.829 51.7132 37.4372 51.5198 37.1029C51.3265 36.7685 51.0189 36.5507 50.5969 36.4494C50.311 36.3808 50.0292 36.3852 49.7515 36.4625C49.4906 36.5295 49.2728 36.6572 49.098 36.8456L45.7695 36.0467L49.651 27.4327L56.9206 29.1774L56.0727 32.7101L51.6007 31.6368L50.9987 33.1552C50.9987 33.1552 51.0769 33.1596 51.2331 33.1683C51.3927 33.1634 51.6358 33.2002 51.9626 33.2786C52.9019 33.504 53.6833 33.9075 54.3068 34.4891C54.9472 35.0603 55.3866 35.7489 55.6251 36.5548C55.8636 37.3607 55.8718 38.2265 55.6496 39.1522C55.4144 40.1324 54.9687 40.9397 54.3125 41.5741C53.6563 42.2084 52.8556 42.6354 51.9103 42.8548C50.9786 43.0775 49.9546 43.0549 48.8383 42.787ZM18.9755 58.112L21.5533 47.371L25.6169 48.3462L26.981 54.1807L30.8649 49.6058L34.9081 50.5761L32.3302 61.3171L28.6546 60.435L29.9827 54.9011L27.3085 58.125L24.8989 57.5467L23.9792 53.4603L22.6511 58.9941L18.9755 58.112ZM34.3703 61.8068L36.9482 51.0658L40.828 51.9969L39.4901 57.5716L44.2177 52.8105L47.7504 53.6583L45.1726 64.3993L41.2927 63.4681L42.5866 58.0772L37.9234 62.6595L34.3703 61.8068ZM47.2127 64.8889L49.7905 54.1479L53.6703 55.0791L52.7931 58.7343L55.6519 59.4204L56.5292 55.7652L60.409 56.6964L57.8311 67.4374L53.9513 66.5062L54.8923 62.5856L52.0334 61.8994L51.0925 65.8201L47.2127 64.8889Z" fill="white"/>
</svg>
