<svg width="147" height="147" viewBox="0 0 147 147" fill="none" xmlns="http://www.w3.org/2000/svg">
<g clip-path="url(#clip0)">
<path d="M75.9783 21.4491C46.8479 21.4491 23.149 45.148 23.149 74.2785C23.149 103.409 46.8479 127.108 75.9783 127.108C105.109 127.108 128.807 103.409 128.807 74.2785C128.808 45.148 105.109 21.4491 75.9783 21.4491ZM75.9783 123.38C48.9039 123.38 26.8775 101.353 26.8775 74.2788C26.8775 47.2046 48.9042 25.1779 75.9783 25.1779C103.053 25.1779 125.079 47.2046 125.079 74.2788C125.079 101.353 103.053 123.38 75.9783 123.38Z" fill="#7A7878"/>
<path d="M75.9784 41.3922C57.8448 41.3922 43.0918 56.1443 43.0918 74.2785C43.0918 92.412 57.8445 107.165 75.9784 107.165C94.1119 107.165 108.865 92.4123 108.865 74.2785C108.865 56.1446 94.1122 41.3922 75.9784 41.3922ZM75.9784 103.437C59.9002 103.437 46.8203 90.3564 46.8203 74.2785C46.8203 58.2006 59.9005 45.1207 75.9784 45.1207C92.0563 45.1207 105.137 58.2009 105.137 74.2785C105.137 90.3567 92.0563 103.437 75.9784 103.437Z" fill="#7A7878"/>
<path d="M18.2954 20.1501C16.6083 20.1501 15.2356 21.5228 15.2356 23.2099V35.628C15.2356 37.262 14.7024 37.7775 14.6256 37.8098C14.4339 37.7644 13.8768 37.0936 13.8768 35.4438V23.2099C13.8768 21.5228 12.5041 20.1501 10.817 20.1501C9.12891 20.1501 7.75558 21.5228 7.75558 23.2099V35.3978C7.75558 37.084 7.21837 37.6861 7.0568 37.7818C6.85608 37.6635 6.3981 36.9625 6.3981 35.3978V23.2099C6.3981 21.5228 5.02508 20.1501 3.33731 20.1501C1.6219 20.1501 0 21.7061 0 23.3516V46.477C0 50.3295 2.09355 53.9082 5.4029 55.8296V122.994C5.4029 125.979 7.83109 128.409 10.8161 128.409C13.8001 128.409 16.2283 125.979 16.2283 122.993V55.8296C19.5383 53.9085 21.6324 50.3301 21.6324 46.4767V23.2099C21.6324 21.4066 19.8738 20.1501 18.2954 20.1501ZM18.8361 46.4767C18.8361 49.5558 17.0293 52.3997 14.2329 53.7218L13.4322 54.1005V122.993C13.4322 124.437 12.259 125.612 10.8164 125.612C9.37344 125.612 8.19958 124.438 8.19958 122.994V54.1008L7.3992 53.7224C4.60345 52.3997 2.79668 49.5558 2.79668 46.477L2.79544 23.37C2.82931 23.2078 3.16425 22.9465 3.33763 22.9465C3.48335 22.9465 3.60204 23.0645 3.60204 23.2099V35.3978C3.60204 36.8336 3.89473 38.0711 4.44841 38.9771C5.07417 40.0003 6.02432 40.5875 7.05618 40.5875C8.74022 40.5875 10.5526 38.9635 10.5526 35.3981V23.2099C10.5526 23.0645 10.6716 22.9465 10.8176 22.9465C10.963 22.9465 11.0811 23.0645 11.0811 23.2099V35.4438C11.0811 36.8656 11.3893 38.1 11.9722 39.0126C12.6185 40.0251 13.5823 40.6056 14.6157 40.6052C16.2615 40.6049 18.0326 39.047 18.0326 35.6277V23.2099C18.0326 23.0645 18.1506 22.9465 18.296 22.9465C18.5222 22.9465 18.782 23.1323 18.8367 23.2376V46.4767H18.8361Z" fill="#7A7878"/>
<path d="M141.588 18.5916C135.52 18.5916 132.57 27.6574 132.57 46.3064C132.57 51.4654 135.828 68.7196 136.175 70.5401V122.993C136.175 125.979 138.603 128.408 141.588 128.408C144.572 128.408 147 125.978 147 122.993V24.005C146.999 21.02 144.572 18.5916 141.588 18.5916ZM144.203 122.993C144.203 124.437 143.03 125.612 141.587 125.612C140.144 125.612 138.97 124.438 138.97 122.994V70.2753L138.945 70.1452C138.91 69.9578 135.366 51.3759 135.366 46.3064C135.366 38.5104 135.89 32.4007 136.925 28.1468C137.675 25.0633 139.093 21.3879 141.588 21.3879C143.03 21.3879 144.203 22.5618 144.203 24.005L144.203 122.993Z" fill="#7A7878"/>
</g>
<defs>
<clipPath id="clip0">
<rect width="147" height="147" fill="white"/>
</clipPath>
</defs>
</svg>
