<svg width="54" height="55" viewBox="0 0 54 55" fill="none" xmlns="http://www.w3.org/2000/svg">
<path d="M30.6528 4.65667L30.54 4.41784L30.2428 4.53137L29.5178 4.80915C29.9309 2.28171 27.3423 0.8305 27.3145 0.815392L26.6396 0.446289L26.8578 1.05896C26.8673 1.08913 27.0932 1.89488 25.3228 2.9022C23.6978 3.82644 23.8102 5.37746 23.9699 6.10039L23.3153 5.95027L23.0118 5.88043L22.9424 6.11711C22.2123 8.60823 23.596 9.66954 24.8851 10.1213L25.5291 10.3469L25.2852 9.83785C25.062 9.37124 25.0058 8.76022 25.1161 8.01964L25.3945 8.11376L25.9149 8.29006L25.8036 7.8627C25.7991 7.8457 25.3679 6.1228 26.3708 5.28139C26.9258 4.81557 27.1828 4.37777 27.2978 4.03739C27.6901 4.57431 28.1688 5.54177 27.9048 6.86246L27.7963 7.40388L28.3718 7.07889L28.7046 6.89101C28.8634 7.53649 29.1323 8.96863 28.6846 9.93459L28.4648 10.409L29.0738 10.2197C32.7031 9.09299 30.7382 4.83752 30.6528 4.65667Z" fill="url(#paint0_radial)"/>
<path fill-rule="evenodd" clip-rule="evenodd" d="M40.851 5.37831L41.027 5.75292L34.7245 8.67688L34.5505 8.30103L40.851 5.37831ZM41.5171 6.24667L41.6924 6.62007L36.3478 9.09894L36.1722 8.72487L41.5171 6.24667ZM42.1481 7.58762L37.5392 9.7259L37.3641 9.35302L41.9723 7.21392L42.1481 7.58762ZM11.3789 22.1786C11.0885 22.3141 10.7434 22.1894 10.6081 21.9019C10.4732 21.6148 10.5963 21.2711 10.887 21.1362C11.1783 21.0007 12.2751 20.7764 12.4107 21.0644C12.5472 21.3527 11.67 22.044 11.3789 22.1786ZM42.4542 8.23754L42.6298 8.61162L37.2857 11.091L37.1095 10.7173L42.4542 8.23754ZM42.8175 9.37613L42.9936 9.75037L36.6933 12.6737L36.5168 12.2993L42.8175 9.37613ZM33.9801 7.39993C33.3956 7.67584 32.5477 11.0321 32.4428 11.454L23.4221 15.6389L23.1018 14.9584L22.4223 15.2736C22.4223 15.2736 21.0836 16.8258 18.1467 17.3225C17.5979 17.5769 10.6163 20.8151 10.6163 20.8151L10.6179 20.8172C10.6095 20.821 10.6027 20.821 10.5964 20.8231C10.0808 21.0636 9.85954 21.675 10.0995 22.1862C10.3404 22.7002 10.9553 22.9225 11.4724 22.682C11.478 22.6786 11.4839 22.6749 11.4905 22.6718L11.4916 22.6737C11.4916 22.6737 18.3669 19.4829 19.0047 19.187C21.9024 17.1891 23.3793 17.303 23.3793 17.303L24.0593 16.988L23.7399 16.3077L32.7363 12.134C32.7363 12.134 36.2639 13.8696 36.893 13.5838C37.5233 13.295 39.9701 12.1807 40.2316 12.0349C40.494 11.8908 44.3237 10.2597 43.5362 8.58691C43.3116 8.10918 42.9071 7.25012 42.827 7.08181C42.819 7.0632 42.8142 7.05061 42.8142 7.05061C42.736 6.88545 42.3384 6.04154 42.1059 5.54583C41.3622 3.96535 37.6015 5.74351 37.3213 5.85027C37.0392 5.96028 34.6085 7.10644 33.98 7.39979L33.9801 7.39993Z" fill="white"/>
<path fill-rule="evenodd" clip-rule="evenodd" d="M43.3196 22.1574C43.1846 22.4455 42.8223 22.5627 42.5099 22.418C42.1964 22.2733 41.2447 21.5485 41.3803 21.2602C41.5146 20.9718 42.6867 21.2291 42.9993 21.3743C43.3116 21.5194 43.4549 21.87 43.3196 22.1574ZM29.9162 14.6232L29.5964 15.304L20.5104 11.0948C19.9662 10.2666 17.7883 8.8388 15.0207 7.55748C13.8554 7.01797 12.7438 6.58061 11.7663 6.25684C12.0631 6.38312 12.3642 6.51572 12.6708 6.65765C15.6203 8.02288 17.8029 9.57399 17.5456 10.1217C17.2886 10.669 14.6888 10.006 11.7397 8.64065C11.3767 8.47254 11.0255 8.30169 10.6887 8.12994L10.6863 8.13527C11.5922 8.69785 12.7048 9.29675 13.9362 9.86687C16.712 11.152 19.2191 11.8912 20.2022 11.7675L29.2845 15.9745L28.9649 16.6558L29.6956 16.9936C29.6956 16.9936 31.8814 17.0751 34.3451 19.083C34.9356 19.3564 42.4428 22.8339 42.4428 22.8339L42.444 22.8318C42.4527 22.8355 42.457 22.8418 42.4641 22.8447C43.0188 23.1004 43.6643 22.8918 43.905 22.3809C44.1479 21.8667 43.8926 21.2417 43.3356 20.9852C43.3294 20.982 43.3228 20.98 43.3162 20.977L43.3165 20.9749C43.3165 20.9749 35.9214 17.5501 35.2354 17.2328C31.596 16.2007 30.6481 14.9615 30.6481 14.9615L29.9162 14.6232Z" fill="white"/>
<path fill-rule="evenodd" clip-rule="evenodd" d="M26.9999 19.8704L29.8999 21.1993L32.8 22.5282H26.9999H21.1997L24.0998 21.1993L26.9999 19.8704Z" fill="white"/>
<path fill-rule="evenodd" clip-rule="evenodd" d="M0.779541 27.7729H6.25105L8.07491 34.4261L9.89875 27.7729H15.3908V29.9703C15.1039 30.0517 14.9024 30.1873 14.7863 30.3772C14.6701 30.5671 14.6121 30.9944 14.6121 31.659V38.475C14.6121 39.1532 14.6701 39.6144 14.7863 39.8586C14.9024 40.1027 15.1039 40.2519 15.3908 40.3062V42.585H10.4316V40.3062C10.7048 40.2519 10.8961 40.0993 11.0053 39.8484C11.1147 39.5974 11.1693 39.1397 11.1693 38.475V32.3711L8.87411 40.062H7.29619L5.00102 32.3711V38.475C5.00102 39.1397 5.05908 39.5974 5.1752 39.8484C5.29133 40.0993 5.47917 40.2519 5.73875 40.3062V42.585H0.779541V40.3062C1.06642 40.2519 1.26795 40.1027 1.38406 39.8586C1.5002 39.6144 1.55826 39.1532 1.55826 38.475V31.659C1.55826 30.9944 1.5002 30.5671 1.38406 30.3772C1.26795 30.1873 1.06642 30.0517 0.779541 29.9703V27.7729ZM24.2231 34.2023V30.3569H22.9116C22.3378 30.3569 21.8903 30.5061 21.5693 30.8045C21.2482 31.1029 21.0877 31.5844 21.0877 32.249C21.0877 33.5512 21.7093 34.2023 22.9526 34.2023H24.2231ZM28.4856 42.585H23.4649V40.3062C23.7313 40.2384 23.9225 40.1061 24.0421 39.9094C24.1616 39.7127 24.2231 39.2753 24.2231 38.5971V36.6032H23.137C22.4539 36.6032 22.0065 36.7388 21.7947 37.0101C21.583 37.2814 21.4771 37.7968 21.4771 38.5564V40.4893C21.4771 41.1268 21.4566 41.5846 21.4156 41.8627C21.3746 42.1407 21.3063 42.3815 21.2107 42.585H17.2146V40.3062C17.4537 40.2519 17.6313 40.1095 17.744 39.8789C17.8567 39.6483 17.9114 39.2346 17.9114 38.6378V37.8239C17.9114 37.2 18.0412 36.7117 18.3007 36.359C18.5603 36.0063 19.0316 35.7215 19.7147 35.5045C18.9223 35.0704 18.3793 34.5753 18.0856 34.0192C17.7918 33.463 17.645 32.7848 17.645 31.9846C17.645 30.7909 18.0514 29.7905 18.8643 28.9835C19.6772 28.1764 20.9033 27.7729 22.5427 27.7729H28.4856V29.9499C28.2123 30.0177 28.0176 30.1534 27.9015 30.3569C27.7854 30.5603 27.7273 30.9944 27.7273 31.659V38.5971C27.7273 39.2617 27.7854 39.6958 27.9015 39.8992C28.0176 40.1027 28.2123 40.2384 28.4856 40.3062V42.585ZM40.6992 32.656H37.5433V32.0456C37.5433 31.3131 37.3759 30.835 37.0412 30.6112C36.7065 30.3874 36.2864 30.2755 35.7809 30.2755C35.2481 30.2755 34.8485 30.4552 34.5821 30.8146C34.3157 31.1741 34.1825 31.7743 34.1825 32.6153V37.7425C34.1825 38.5835 34.3157 39.1871 34.5821 39.5534C34.8485 39.9196 35.2481 40.1027 35.7809 40.1027C36.3138 40.1027 36.7407 39.923 37.0617 39.5635C37.3828 39.2041 37.5433 38.5971 37.5433 37.7425V37.1932H40.6992V41.7508C39.21 42.5103 37.5706 42.8901 35.7809 42.8901C34.8109 42.8901 33.9981 42.7918 33.3423 42.5951C32.6865 42.3984 32.1572 42.1068 31.7541 41.7202C31.3511 41.3337 31.0608 40.8521 30.8832 40.2757C30.7056 39.6992 30.6168 39.0311 30.6168 38.2715V31.8218C30.6168 30.3704 31.0096 29.2853 31.7951 28.5664C32.5807 27.8475 33.9093 27.488 35.7809 27.488C37.4613 27.488 39.1008 27.8475 40.6992 28.5664V32.656ZM46.5191 32.6153V37.7425C46.5191 38.5835 46.6523 39.1871 46.9187 39.5534C47.1851 39.9196 47.5847 40.1027 48.1175 40.1027C48.6503 40.1027 49.0533 39.923 49.3266 39.5635C49.5998 39.2041 49.7364 38.5971 49.7364 37.7425V32.6153C49.7364 31.7743 49.5998 31.1741 49.3266 30.8146C49.0533 30.4552 48.6503 30.2755 48.1175 30.2755C47.5847 30.2755 47.1851 30.4552 46.9187 30.8146C46.6523 31.1741 46.5191 31.7743 46.5191 32.6153ZM48.1175 42.8901C46.2322 42.8901 44.9138 42.4968 44.1624 41.7101C43.411 40.9234 43.0353 39.7772 43.0353 38.2715V32.0456C43.0353 30.5264 43.4144 29.387 44.1727 28.6274C44.9309 27.8678 46.2458 27.488 48.1175 27.488C50.0302 27.488 51.3588 27.8678 52.1033 28.6274C52.8479 29.387 53.2202 30.5264 53.2202 32.0456V38.2715C53.2202 39.0311 53.1382 39.6958 52.9743 40.2655C52.8103 40.8352 52.5302 41.3167 52.1341 41.7101C51.7379 42.1034 51.2153 42.3984 50.5664 42.5951C49.9174 42.7918 49.1012 42.8901 48.1175 42.8901ZM4.09316 51.1865V52.4849C4.09316 52.8548 4.12481 53.0935 4.18629 53.2007C4.24777 53.308 4.35395 53.3801 4.5067 53.4171V54.6601H1.76821V53.4171C1.91722 53.3801 2.02341 53.3062 2.08677 53.1952C2.1501 53.0842 2.18176 52.8475 2.18176 52.4849V48.7006C2.18176 48.3381 2.1501 48.1013 2.08677 47.9903C2.02341 47.8793 1.91722 47.8054 1.76821 47.7684V46.5809H4.5067V47.7684C4.35395 47.8054 4.24777 47.8793 4.18629 47.9903C4.12481 48.1013 4.09316 48.3381 4.09316 48.7006V49.8103H5.85921V48.7006C5.85921 48.3381 5.82567 48.1013 5.75862 47.9903C5.69155 47.8793 5.5835 47.8054 5.43447 47.7684V46.5809H8.18416V47.7684C8.04257 47.8054 7.93639 47.8793 7.8656 47.9903C7.79481 48.1013 7.75941 48.3381 7.75941 48.7006V52.4849C7.75941 52.8475 7.79295 53.0842 7.86 53.1952C7.92708 53.3062 8.03512 53.3801 8.18416 53.4171V54.6601H5.43447V53.4171C5.5835 53.3801 5.69155 53.308 5.75862 53.2007C5.82567 53.0935 5.85921 52.8548 5.85921 52.4849V51.1865H4.09316ZM12.074 47.9681L11.4816 51.131H12.767L12.1746 47.9681H12.074ZM11.5374 54.6601H8.88835V53.4171C9.00013 53.3801 9.09514 53.3043 9.17336 53.1896C9.25161 53.075 9.31683 52.8881 9.369 52.6292L10.2297 48.5785C10.2595 48.4379 10.2595 48.301 10.2297 48.1679C10.1999 48.0347 10.1328 47.9681 10.0285 47.9681V46.5809H14.3207V47.9681C14.2163 47.9681 14.1493 48.0347 14.1195 48.1679C14.0897 48.301 14.0897 48.4379 14.1195 48.5785L14.9913 52.6292C15.051 52.8881 15.1143 53.075 15.1814 53.1896C15.2484 53.3043 15.3416 53.3801 15.4608 53.4171V54.6601H12.7223V53.4171C12.8564 53.4171 12.9496 53.369 13.0017 53.2729C13.0539 53.1767 13.08 53.1027 13.08 53.0509C13.08 52.8585 13.0613 52.6699 13.0241 52.4849L13.0017 52.3628H11.2468L11.2245 52.4849C11.1872 52.6699 11.1686 52.8585 11.1686 53.0509C11.1686 53.1027 11.1947 53.1767 11.2468 53.2729C11.299 53.369 11.3959 53.4171 11.5374 53.4171V54.6601ZM19.25 46.5809H22.0444V47.7684C21.888 47.8127 21.8097 47.9459 21.8097 48.1679C21.8097 48.2567 21.8209 48.3417 21.8432 48.4231L22.5139 50.8313L23.1622 48.4342C23.1845 48.3455 23.1957 48.2604 23.1957 48.179C23.1957 48.0606 23.1734 47.9718 23.1287 47.9126C23.084 47.8534 23.0132 47.8054 22.9163 47.7684V46.5809H25.5877V47.7684C25.4909 47.8054 25.4108 47.8627 25.3474 47.9404C25.2841 48.0181 25.2189 48.1568 25.1518 48.3565L23.8664 52.2852C23.7024 52.7957 23.5404 53.2118 23.3801 53.5337C23.2199 53.8555 23.0374 54.1107 22.8324 54.2994C22.6275 54.4881 22.3909 54.6175 22.1227 54.6878C21.8544 54.7581 21.534 54.7933 21.1614 54.7933C20.9528 54.7933 20.7143 54.7489 20.446 54.6601V53.3949H20.6472C20.8708 53.3949 21.0384 53.3561 21.1502 53.2784C21.262 53.2007 21.3477 53.0657 21.4073 52.8734L19.7195 48.412C19.5481 48.0199 19.3916 47.8054 19.25 47.7684V46.5809ZM29.1087 54.6601H26.2361V53.4615C26.3851 53.4023 26.4913 53.3154 26.5546 53.2007C26.6179 53.0861 26.6496 52.8475 26.6496 52.4849V48.7006C26.6496 48.375 26.6179 48.1475 26.5546 48.0181C26.4913 47.8886 26.3851 47.8054 26.2361 47.7684V46.5809H31.7466V49.2444H30.07V48.7561C30.07 48.5193 29.9992 48.3306 29.8576 48.1901C29.716 48.0495 29.4776 47.9792 29.1422 47.9792H28.5833V52.4849C28.5833 52.8401 28.6206 53.0916 28.6951 53.2396C28.7696 53.3875 28.9075 53.4615 29.1087 53.4615V54.6601ZM32.7079 46.5809H38.878V47.7684C38.7289 47.8054 38.6209 47.8793 38.5538 47.9903C38.4867 48.1013 38.4532 48.3381 38.4532 48.7006V52.4849C38.4532 52.8475 38.4867 53.0842 38.5538 53.1952C38.6209 53.3062 38.7289 53.3801 38.878 53.4171V54.6601H36.1283V53.4171C36.2773 53.3801 36.3854 53.308 36.4524 53.2007C36.5195 53.0935 36.553 52.8548 36.553 52.4849V48.0569H35.0105V52.5959C35.0105 53.2914 34.8614 53.8333 34.5634 54.2217C34.2653 54.6101 33.8294 54.8044 33.2556 54.8044C33.0842 54.8044 32.9128 54.7896 32.7414 54.76C32.57 54.7304 32.4061 54.686 32.2496 54.6268V53.4171H32.462C32.693 53.4171 32.8625 53.3413 32.9706 53.1896C33.0786 53.038 33.1326 52.755 33.1326 52.3407V48.7006C33.1326 48.3381 33.0972 48.1013 33.0265 47.9903C32.9557 47.8793 32.8495 47.8054 32.7079 47.7684V46.5809ZM43.7067 50.0878V47.9903H42.9913C42.6783 47.9903 42.4343 48.0717 42.2592 48.2345C42.0841 48.3972 41.9965 48.6599 41.9965 49.0224C41.9965 49.7327 42.3356 50.0878 43.0137 50.0878H43.7067ZM46.0316 54.6601H43.2931V53.4171C43.4384 53.3801 43.5428 53.308 43.608 53.2007C43.6732 53.0935 43.7067 52.8548 43.7067 52.4849V51.3973H43.1143C42.7417 51.3973 42.4977 51.4713 42.3822 51.6193C42.2667 51.7673 42.2089 52.0484 42.2089 52.4627V53.517C42.2089 53.8648 42.1977 54.1144 42.1754 54.2661C42.153 54.4178 42.1158 54.5491 42.0636 54.6601H39.8839V53.4171C40.0144 53.3875 40.1112 53.3098 40.1727 53.1841C40.2342 53.0583 40.264 52.8327 40.264 52.5071V52.0632C40.264 51.7229 40.3348 51.4565 40.4763 51.2642C40.618 51.0718 40.875 50.9164 41.2476 50.7981C40.8154 50.5613 40.5192 50.2913 40.359 49.9879C40.1988 49.6846 40.1187 49.3146 40.1187 48.8782C40.1187 48.2271 40.3404 47.6814 40.7837 47.2412C41.2271 46.801 41.8959 46.5809 42.7901 46.5809H46.0316V47.7684C45.8826 47.8054 45.7764 47.8793 45.7131 47.9903C45.6497 48.1013 45.6181 48.3381 45.6181 48.7006V52.4849C45.6181 52.8475 45.6497 53.0842 45.7131 53.1952C45.7764 53.3062 45.8826 53.3801 46.0316 53.4171V54.6601ZM46.9258 46.5809H49.2396V47.3466C49.2396 47.6352 49.2955 47.8867 49.4073 48.1013L49.7426 48.8005L50.0779 48.1013C50.1301 47.9977 50.173 47.8849 50.2065 47.7628C50.24 47.6407 50.2568 47.502 50.2568 47.3466V46.5809H52.5594V47.7795C52.5221 47.7795 52.4607 47.8127 52.375 47.8793C52.2892 47.9459 52.1942 48.0754 52.0899 48.2678L50.7821 50.4762L52.1794 52.8622C52.306 53.0694 52.4085 53.2137 52.4867 53.2951C52.565 53.3764 52.6302 53.4171 52.6823 53.4171V54.6601H50.2791V53.6835C50.2791 53.5207 50.2568 53.3654 50.2121 53.2174C50.1674 53.0694 50.1152 52.9325 50.0556 52.8068L49.7426 52.1409L49.4296 52.8068C49.37 52.9325 49.3197 53.0694 49.2787 53.2174C49.2378 53.3654 49.2173 53.5207 49.2173 53.6835V54.6601H46.8029V53.4171C46.8551 53.4171 46.9203 53.3764 46.9985 53.2951C47.0767 53.2137 47.1792 53.0694 47.3059 52.8622L48.7031 50.4762L47.3953 48.2678C47.291 48.0754 47.196 47.9459 47.1103 47.8793C47.0246 47.8127 46.9631 47.7795 46.9258 47.7795V46.5809Z" fill="white"/>
<defs>
<radialGradient id="paint0_radial" cx="0" cy="0" r="1" gradientUnits="userSpaceOnUse" gradientTransform="translate(27 5.42764) scale(8.51996 9.96269)">
<stop stop-color="#FFEC00"/>
<stop offset="1" stop-color="#F07C00"/>
</radialGradient>
</defs>
</svg>
