<svg width="30" height="20" viewBox="0 0 30 20" fill="none" xmlns="http://www.w3.org/2000/svg">
<path d="M15.1813 19.375C19.5212 19.375 17.9738 16.6275 18.3088 15.8375C18.3038 15.2475 18.2987 14.68 18.3188 14.335C18.5938 14.4125 19.2425 14.7412 20.5825 16.0437C22.6512 18.1312 23.18 19.375 24.8512 19.375H27.9275C28.9025 19.375 29.41 18.9713 29.6638 18.6325C29.9088 18.305 30.1488 17.73 29.8862 16.835C29.2 14.68 25.1975 10.9587 24.9487 10.5662C24.9862 10.4937 25.0462 10.3975 25.0775 10.3475H25.075C25.865 9.30375 28.88 4.78625 29.3237 2.97875C29.325 2.97625 29.3263 2.9725 29.3263 2.96875C29.5662 2.14375 29.3463 1.60875 29.1187 1.30625C28.7763 0.85375 28.2313 0.625 27.495 0.625H24.4188C23.3888 0.625 22.6075 1.14375 22.2125 2.09C21.5513 3.77125 19.6938 7.22875 18.3013 8.4525C18.2587 6.71875 18.2875 5.395 18.31 4.41125C18.355 2.4925 18.5 0.625 16.5087 0.625H11.6737C10.4262 0.625 9.2325 1.9875 10.525 3.605C11.655 5.0225 10.9312 5.8125 11.175 9.745C10.225 8.72625 8.535 5.975 7.34 2.45875C7.005 1.5075 6.4975 0.62625 5.06875 0.62625H1.9925C0.745 0.62625 0 1.30625 0 2.445C0 5.0025 5.66125 19.375 15.1813 19.375ZM5.06875 2.50125C5.34 2.50125 5.3675 2.50125 5.56875 3.0725C6.7925 6.67625 9.5375 12.0088 11.5425 12.0088C13.0487 12.0088 13.0487 10.465 13.0487 9.88375L13.0475 5.25625C12.965 3.725 12.4075 2.9625 12.0413 2.5L16.4263 2.505C16.4287 2.52625 16.4013 7.62375 16.4387 8.85875C16.4387 10.6125 17.8312 11.6175 20.005 9.4175C22.2987 6.82875 23.885 2.95875 23.9487 2.80125C24.0425 2.57625 24.1238 2.5 24.4188 2.5H27.495H27.5075C27.5063 2.50375 27.5063 2.5075 27.505 2.51125C27.2237 3.82375 24.4475 8.00625 23.5188 9.305C23.5037 9.325 23.49 9.34625 23.4762 9.3675C23.0675 10.035 22.735 10.7725 23.5325 11.81H23.5337C23.6062 11.8975 23.795 12.1025 24.07 12.3875C24.925 13.27 27.8575 16.2875 28.1175 17.4875C27.945 17.515 27.7575 17.495 24.8512 17.5012C24.2325 17.5012 23.7487 16.5763 21.9025 14.7137C20.2425 13.0988 19.165 12.4388 18.1838 12.4388C16.2787 12.4388 16.4175 13.985 16.435 15.855C16.4412 17.8825 16.4288 17.2413 16.4425 17.3688C16.3313 17.4125 16.0125 17.5 15.1813 17.5C7.25 17.5 2.085 4.91125 1.88625 2.505C1.955 2.49875 2.90125 2.5025 5.06875 2.50125Z" fill="url(#paint0_linear)"/>
<defs>
<linearGradient id="paint0_linear" x1="1.18628e-07" y1="13.375" x2="30.0014" y2="13.2525" gradientUnits="userSpaceOnUse">
<stop offset="0.0520833" stop-color="#E73A14"/>
<stop offset="1" stop-color="#EA3C24"/>
</linearGradient>
</defs>
</svg>
